<?xml version="1.0" encoding="UTF-8" standalone="no"?>
<svg
   width="849.57129"
   height="500.03229"
   overflow="hidden"
   version="1.1"
   id="svg81"
   sodipodi:docname="commerce-ivs-integration.svg"
   inkscape:version="1.3 (0e150ed6c4, 2023-07-21)"
   xmlns:inkscape="http://www.inkscape.org/namespaces/inkscape"
   xmlns:sodipodi="http://sodipodi.sourceforge.net/DTD/sodipodi-0.dtd"
   xmlns="http://www.w3.org/2000/svg"
   xmlns:svg="http://www.w3.org/2000/svg">
  <sodipodi:namedview
     id="namedview81"
     pagecolor="#ffffff"
     bordercolor="#000000"
     borderopacity="0.25"
     inkscape:showpageshadow="2"
     inkscape:pageopacity="0.0"
     inkscape:pagecheckerboard="0"
     inkscape:deskcolor="#d1d1d1"
     inkscape:zoom="1.5643185"
     inkscape:cx="595.46696"
     inkscape:cy="212.55262"
     inkscape:window-width="2560"
     inkscape:window-height="1417"
     inkscape:window-x="-8"
     inkscape:window-y="-8"
     inkscape:window-maximized="1"
     inkscape:current-layer="svg81" />
  <defs
     id="defs1">
    <clipPath
       id="clip0">
      <rect
         x="0"
         y="0"
         width="1306"
         height="734"
         id="rect1" />
    </clipPath>
  </defs>
  <g
     clip-path="url(#clip0)"
     id="g81"
     transform="translate(-57.53304,-154.69995)">
    <rect
       x="0"
       y="0"
       width="1306"
       height="734.479"
       fill="#002050"
       id="rect2" />
    <path
       d="m 174.5,248.823 c 0,-21.247 17.237,-38.472 38.5,-38.472 21.263,0 38.5,17.225 38.5,38.472 0,21.248 -17.237,38.473 -38.5,38.473 -21.263,0 -38.5,-17.225 -38.5,-38.473 z"
       stroke="#6e9cdf"
       stroke-width="3.00077"
       stroke-linejoin="round"
       stroke-miterlimit="10"
       fill="none"
       fill-rule="evenodd"
       id="path2" />
    <g
       id="g7">
      <g
         id="g6">
        <g
           id="g5">
          <path
             d="m 30.3785,25.1572 c -1.7405,-1.424 -3.9556,-2.3733 -6.1707,-3.0062 -1.5822,-0.4747 -3.3226,-0.7911 -5.2213,-0.7911 -1.7404,0 -3.4808,0.3164 -5.2213,0.7911 -2.2151,0.6329 -4.43015,1.7404 -6.17058,3.0062 -0.79111,0.6329 -1.26577,1.5822 -1.26577,2.5315 v 6.3289 H 31.6442 v -6.3289 c 0,-0.9493 -0.4746,-1.8986 -1.2657,-2.5315 z"
             fill="#f2f2f2"
             transform="matrix(1.00071,0,0,1,194,228.838)"
             id="path3" />
          <path
             d="m 12.8159,8.06928 c 0.2374,0 0.4351,-0.07911 0.5538,-0.23733 v 0 c 1.4635,-1.42399 3.4413,-2.29421 5.6168,-2.29421 4.3511,0 7.9111,3.55998 7.9111,7.91106 v 1.8195 l -4.5489,1.5032 c -0.1977,-0.0792 -0.3955,-0.1583 -0.5933,-0.1583 -0.6724,0 -1.1866,0.5142 -1.1866,1.1867 0,0.6724 0.5142,1.1866 1.1866,1.1866 0.4747,0 0.9098,-0.2768 1.1076,-0.7119 l 6.2893,-2.0965 c 0.3164,-0.1186 0.5537,-0.3955 0.5537,-0.7515 v -3.56 c 0,-0.4351 -0.356,-0.7911 -0.7911,-0.7911 h -0.712 c -1.068,-4.07421 -4.7862,-7.11997 -9.2164,-7.11997 -2.571,0 -4.9048,1.02844 -6.6452,2.68976 -0.1978,0.15822 -0.3165,0.356 -0.3165,0.63289 0,0.4351 0.356,0.7911 0.7911,0.7911 z"
             fill="#f2f2f2"
             transform="matrix(1.00071,0,0,1,194,228.838)"
             id="path4" />
          <path
             d="m 25.2758,14.1212 c 0.0396,-0.2373 0.0396,-0.4351 0.0396,-0.6724 0,-3.48086 -2.848,-6.32884 -6.3289,-6.32884 -3.4808,0 -6.3288,2.84798 -6.3288,6.32884 0,3.4809 2.848,6.3289 6.3288,6.3289 0.1187,0 0.2769,0 0.3956,-0.0396 v -1.9382 0 c 0,-0.356 0.0791,-0.712 0.2373,-1.068 0.2769,-0.5538 0.7516,-0.9889 1.3845,-1.1867 z"
             fill="#f2f2f2"
             transform="matrix(1.00071,0,0,1,194,228.838)"
             id="path5" />
        </g>
      </g>
    </g>
    <path
       d="m 545.5,248.823 c 0,-21.247 17.237,-38.472 38.5,-38.472 21.263,0 38.5,17.225 38.5,38.472 0,21.248 -17.237,38.473 -38.5,38.473 -21.263,0 -38.5,-17.225 -38.5,-38.473 z"
       stroke="#6e9cdf"
       stroke-width="3.00077"
       stroke-linejoin="round"
       stroke-miterlimit="10"
       fill="none"
       fill-rule="evenodd"
       id="path7" />
    <g
       id="g14">
      <g
         id="g13">
        <g
           id="g12">
          <path
             d="m 18.5,27.75 c 0.6552,0 1.1562,0.501 1.1562,1.1562 0,0.6553 -0.501,1.1563 -1.1562,1.1563 -0.6552,0 -1.1563,-0.501 -1.1563,-1.1563 0,-0.6552 0.5011,-1.1562 1.1563,-1.1562 z M 3.08333,31.6042 H 33.9167 V 26.2083 H 3.08333 Z"
             fill="#f2f2f2"
             transform="matrix(1,0,0,1.0263,565,228.838)"
             id="path8" />
          <path
             d="m 10.7917,13.1042 h 3.8541 v 1.5416 h -3.8541 z"
             fill="#f2f2f2"
             transform="matrix(1,0,0,1.0263,565,228.838)"
             id="path9" />
          <path
             d="m 10.7917,10.0208 h 3.8541 v 1.5417 h -3.8541 z"
             fill="#f2f2f2"
             transform="matrix(1,0,0,1.0263,565,228.838)"
             id="path10" />
          <path
             d="m 10.7917,6.9375 h 3.8541 v 1.54167 h -3.8541 z"
             fill="#f2f2f2"
             transform="matrix(1,0,0,1.0263,565,228.838)"
             id="path11" />
          <path
             d="m 29.2917,16.1875 h -9.25 v -3.8542 h 9.25 z m -13.1042,0 H 9.25 V 5.39583 h 6.9375 z m 15.4167,0 v -4.625 c 0,-0.8479 -0.6938,-1.5417 -1.5417,-1.5417 H 17.7292 V 4.625 c 0,-0.42396 -0.3469,-0.77083 -0.7709,-0.77083 H 8.47917 c -0.42396,0 -0.77084,0.34687 -0.77084,0.77083 v 5.3958 H 6.9375 c -0.84792,0 -1.54167,0.6938 -1.54167,1.5417 v 4.625 l -2.3125,5.3958 v 3.0834 H 33.9167 v -3.0834 z"
             fill="#f2f2f2"
             transform="matrix(1,0,0,1.0263,565,228.838)"
             id="path12" />
        </g>
      </g>
    </g>
    <path
       d="m 690.5,248.823 c 0,-21.247 17.237,-38.472 38.5,-38.472 21.263,0 38.5,17.225 38.5,38.472 0,21.248 -17.237,38.473 -38.5,38.473 -21.263,0 -38.5,-17.225 -38.5,-38.473 z"
       stroke="#6e9cdf"
       stroke-width="3.00077"
       stroke-linejoin="round"
       stroke-miterlimit="10"
       fill="none"
       fill-rule="evenodd"
       id="path14" />
    <g
       id="g19">
      <g
         id="g18">
        <g
           id="g17">
          <path
             d="M 30.062,23.7332 H 7.91106 V 10.2844 H 30.062 Z M 32.4354,9.49327 c 0,-0.87381 -0.7084,-1.58221 -1.5823,-1.58221 H 7.11996 c -0.87382,0 -1.58222,0.7084 -1.58222,1.58221 V 26.1065 H 32.4354 Z"
             fill="#f2f2f2"
             transform="matrix(1.00071,0,0,1,710,228.838)"
             id="path15" />
          <path
             d="m 21.3599,27.6887 v 0.3956 c 0.0135,0.2049 -0.1416,0.382 -0.3465,0.3955 -0.0163,0.0011 -0.0328,0.0011 -0.0491,0 h -3.9555 c -0.2049,0.0136 -0.382,-0.1415 -0.3956,-0.3464 -10e-4,-0.0164 -10e-4,-0.0328 0,-0.0491 V 27.6887 H 0.791106 v 0.7911 c 0,0.8738 0.708384,1.5822 1.582214,1.5822 H 35.5998 c 0.8738,0 1.5822,-0.7084 1.5822,-1.5822 v -0.7911 z"
             fill="#f2f2f2"
             transform="matrix(1.00071,0,0,1,710,228.838)"
             id="path16" />
          <path
             d="m 18.9865,11.471 c -3.0584,0 -5.5377,2.4794 -5.5377,5.5378 0,3.0584 2.4793,5.5377 5.5377,5.5377 3.0585,0 5.5378,-2.4793 5.5378,-5.5377 0,-3.0584 -2.4793,-5.5378 -5.5378,-5.5378 z m 0.3956,5.9333 h 1.8156 c -0.2068,1.3637 -0.8427,2.6259 -1.8156,3.6035 z m 0,-0.7911 v -3.6074 c 0.9739,0.9785 1.6099,2.2423 1.8156,3.6074 z m -0.7911,0 h -1.7563 c 0.1967,-1.3417 0.8113,-2.5874 1.7563,-3.5599 z m 0,0.7911 v 3.56 c -0.9432,-0.9738 -1.5575,-2.2188 -1.7563,-3.56 z m -2.5513,-0.7911 h -1.693 c 0.1756,-2.0719 1.7049,-3.7756 3.7459,-4.1731 -1.1276,1.1253 -1.8497,2.5931 -2.0529,4.1731 z m 0,0.7911 c 0.2033,1.5828 0.9285,3.0526 2.0608,4.1771 -2.044,-0.3972 -3.5764,-2.1024 -3.7538,-4.1771 z m 5.9531,0 h 1.6336 c -0.1732,2.0484 -1.6704,3.7403 -3.6826,4.1613 1.127,-1.1204 1.8481,-2.5848 2.049,-4.1613 z m 0,-0.7911 c -0.2025,-1.5723 -0.9187,-3.0337 -2.0371,-4.1572 2.0062,0.4251 3.4972,2.1138 3.6707,4.1572 z"
             fill="#f2f2f2"
             transform="matrix(1.00071,0,0,1,710,228.838)"
             id="path17" />
        </g>
      </g>
    </g>
    <path
       d="m 102.5,362.743 c 0,-9.658 7.835,-17.488 17.5,-17.488 h 186 c 9.665,0 17.5,7.83 17.5,17.488 v 69.95 c 0,9.658 -7.835,17.488 -17.5,17.488 H 120 c -9.665,0 -17.5,-7.83 -17.5,-17.488 z"
       stroke="#6e9cdf"
       stroke-width="3.00077"
       stroke-linejoin="round"
       stroke-miterlimit="10"
       fill="none"
       fill-rule="evenodd"
       id="path19" />
    <g
       id="g25">
      <g
         id="g24">
        <g
           id="g23">
          <path
             d="m 15.031,3.55998 c 0,0.87383 -2.4793,1.58221 -5.53773,1.58221 -3.05841,0 -5.53774,-0.70838 -5.53774,-1.58221 0,-0.87383 2.47933,-1.58221 5.53774,-1.58221 3.05843,0 5.53773,0.70838 5.53773,1.58221 z"
             fill="#ffffff"
             transform="matrix(1.0007,0,0,1,124,388.724)"
             id="path20" />
          <path
             d="m 13.4488,7.51551 c -0.2373,0 -0.3955,-0.15822 -0.3955,-0.39555 0,-0.23734 0.1582,-0.39556 0.3955,-0.39556 0.2373,0 0.3956,0.15822 0.3956,0.39556 0,0.23733 -0.1583,0.39555 -0.3956,0.39555 z M 9.49327,5.9333 c -3.04575,0 -5.53774,-0.712 -5.53774,-1.58222 v 3.16443 c 0,0.87022 2.49199,1.58221 5.53774,1.58221 3.04573,0 5.53773,-0.71199 5.53773,-1.58221 V 4.35108 c 0,0.87022 -2.492,1.58222 -5.53773,1.58222 z"
             fill="#ffffff"
             transform="matrix(1.0007,0,0,1,124,388.724)"
             id="path21" />
          <path
             d="m 13.4488,11.471 c -0.2373,0 -0.3955,-0.1582 -0.3955,-0.3955 0,-0.2373 0.1582,-0.3956 0.3955,-0.3956 0.2373,0 0.3956,0.1583 0.3956,0.3956 0,0.2373 -0.1583,0.3955 -0.3956,0.3955 z M 9.49327,9.88883 c -3.04575,0 -5.53774,-0.712 -5.53774,-1.58222 V 11.471 c 0,0.8703 2.49199,1.5823 5.53774,1.5823 3.04573,0 5.53773,-0.712 5.53773,-1.5823 V 8.30661 c 0,0.87022 -2.492,1.58222 -5.53773,1.58222 z"
             fill="#ffffff"
             transform="matrix(1.0007,0,0,1,124,388.724)"
             id="path22" />
          <path
             d="m 13.4488,15.4266 c -0.2373,0 -0.3955,-0.1583 -0.3955,-0.3956 0,-0.2373 0.1582,-0.3955 0.3955,-0.3955 0.2373,0 0.3956,0.1582 0.3956,0.3955 0,0.2373 -0.1583,0.3956 -0.3956,0.3956 z M 9.49327,13.8444 c -3.04575,0 -5.53774,-0.712 -5.53774,-1.5823 v 3.1645 c 0,0.8702 2.49199,1.5822 5.53774,1.5822 3.04573,0 5.53773,-0.712 5.53773,-1.5822 v -3.1645 c 0,0.8703 -2.492,1.5823 -5.53773,1.5823 z"
             fill="#ffffff"
             transform="matrix(1.0007,0,0,1,124,388.724)"
             id="path23" />
        </g>
      </g>
    </g>
    <text
       fill="#ffffff"
       font-family="Aptos, Aptos_MSFontService, sans-serif"
       font-weight="400"
       font-size="13px"
       transform="matrix(1,0,0,0.999291,147.456,395)"
       id="text25">Microsoft finance and</text>
    <text
       fill="#ffffff"
       font-family="Aptos, Aptos_MSFontService, sans-serif"
       font-weight="400"
       font-size="13px"
       transform="matrix(1,0,0,0.999291,147.456,411)"
       id="text26">operations apps database</text>
    <path
       d="m 550.5,362.743 c 0,-9.658 7.835,-17.488 17.5,-17.488 h 186 c 9.665,0 17.5,7.83 17.5,17.488 v 69.95 c 0,9.658 -7.835,17.488 -17.5,17.488 H 568 c -9.665,0 -17.5,-7.83 -17.5,-17.488 z"
       stroke="#6e9cdf"
       stroke-width="3.00077"
       stroke-linejoin="round"
       stroke-miterlimit="10"
       fill="none"
       fill-rule="evenodd"
       id="path26" />
    <g
       id="g32">
      <g
         id="g31">
        <g
           id="g30">
          <path
             d="m 15.031,3.55998 c 0,0.87383 -2.4793,1.58221 -5.53773,1.58221 -3.05841,0 -5.53774,-0.70838 -5.53774,-1.58221 0,-0.87383 2.47933,-1.58221 5.53774,-1.58221 3.05843,0 5.53773,0.70838 5.53773,1.58221 z"
             fill="#ffffff"
             transform="matrix(1.00071,0,0,1,573,386.726)"
             id="path27" />
          <path
             d="m 13.4488,7.51551 c -0.2373,0 -0.3955,-0.15822 -0.3955,-0.39555 0,-0.23734 0.1582,-0.39556 0.3955,-0.39556 0.2373,0 0.3956,0.15822 0.3956,0.39556 0,0.23733 -0.1583,0.39555 -0.3956,0.39555 z M 9.49327,5.9333 c -3.04575,0 -5.53774,-0.712 -5.53774,-1.58222 v 3.16443 c 0,0.87022 2.49199,1.58221 5.53774,1.58221 3.04573,0 5.53773,-0.71199 5.53773,-1.58221 V 4.35108 c 0,0.87022 -2.492,1.58222 -5.53773,1.58222 z"
             fill="#ffffff"
             transform="matrix(1.00071,0,0,1,573,386.726)"
             id="path28" />
          <path
             d="m 13.4488,11.471 c -0.2373,0 -0.3955,-0.1582 -0.3955,-0.3955 0,-0.2373 0.1582,-0.3956 0.3955,-0.3956 0.2373,0 0.3956,0.1583 0.3956,0.3956 0,0.2373 -0.1583,0.3955 -0.3956,0.3955 z M 9.49327,9.88883 c -3.04575,0 -5.53774,-0.712 -5.53774,-1.58222 V 11.471 c 0,0.8703 2.49199,1.5823 5.53774,1.5823 3.04573,0 5.53773,-0.712 5.53773,-1.5823 V 8.30661 c 0,0.87022 -2.492,1.58222 -5.53773,1.58222 z"
             fill="#ffffff"
             transform="matrix(1.00071,0,0,1,573,386.726)"
             id="path29" />
          <path
             d="m 13.4488,15.4266 c -0.2373,0 -0.3955,-0.1583 -0.3955,-0.3956 0,-0.2373 0.1582,-0.3955 0.3955,-0.3955 0.2373,0 0.3956,0.1582 0.3956,0.3955 0,0.2373 -0.1583,0.3956 -0.3956,0.3956 z M 9.49327,13.8444 c -3.04575,0 -5.53774,-0.712 -5.53774,-1.5823 v 3.1645 c 0,0.8702 2.49199,1.5822 5.53774,1.5822 3.04573,0 5.53773,-0.712 5.53773,-1.5822 v -3.1645 c 0,0.8703 -2.492,1.5823 -5.53773,1.5823 z"
             fill="#ffffff"
             transform="matrix(1.00071,0,0,1,573,386.726)"
             id="path30" />
        </g>
      </g>
    </g>
    <text
       fill="#ffffff"
       font-family="Aptos, Aptos_MSFontService, sans-serif"
       font-weight="400"
       font-size="13px"
       transform="matrix(1,0,0,0.999291,596.292,394)"
       id="text32">Dynamics 365 Commerce</text>
    <text
       fill="#ffffff"
       font-family="Aptos, Aptos_MSFontService, sans-serif"
       font-weight="400"
       font-size="13px"
       transform="matrix(1,0,0,0.999291,596.292,410)"
       id="text33">channel database</text>
    <path
       d="m 214.167,293.96 v 44.647 h -1.334 V 293.96 Z m -4.668,1.333 4.001,-7.997 4.001,7.997 z m 8.002,41.982 -4.001,7.996 -4.001,-7.996 z"
       fill="#ffc000"
       id="path33" />
    <path
       d="m 214.167,456.844 v 41.347 h -1.334 v -41.347 z m -4.668,1.333 4.001,-7.996 4.001,7.996 z m 8.002,38.681 -4.001,7.996 -4.001,-7.996 z"
       fill="#ffc000"
       id="path34" />
    <path
       d="m 584.167,293.96 v 44.647 h -1.334 V 293.96 Z m -4.668,1.333 4.001,-7.997 4.001,7.997 z m 8.002,41.982 -4.001,7.996 -4.001,-7.996 z"
       fill="#ffc000"
       id="path35" />
    <path
       d="m 730.167,293.96 v 44.647 h -1.334 V 293.96 Z m -4.668,1.333 4.001,-7.997 4.001,7.997 z m 8.002,41.982 -4.001,7.996 -4.001,-7.996 z"
       fill="#ffc000"
       id="path36" />
    <g
       id="g40">
      <g
         id="g39">
        <g
           id="g38">
          <path
             d="M 9.57135,12.9109 9.1445,12.4838 5.31742,16.3112 c -0.00118,0.0011 -0.00308,0.0011 -0.00426,0 -4.8e-4,-5e-4 -8.2e-4,-0.0011 -8.8e-4,-0.0018 C 4.30365,11.2405 7.5951,6.3137 12.664,5.30507 16.8929,4.46355 21.1495,6.62058 22.9716,10.5286 l 0.547,-0.2557 C 21.2003,5.28481 15.2773,3.12054 10.2892,5.43883 6.2862,7.2993 3.98542,11.5727 4.6361,15.9387 c 5.1e-4,0.0014 -2.1e-4,0.0029 -0.0016,0.0035 -0.00121,4e-4 -0.00254,-10e-5 -0.00323,-0.0011 l -3.4567,-3.4573 -0.426842,0.4271 4.411812,4.4118 z"
             stroke="#ffc000"
             stroke-width="0.822115"
             fill="#ff04ff"
             transform="matrix(1.00071,0,0,1,417,336.761)"
             id="path37" />
          <path
             d="m 19.408,16.6825 0.4269,0.4268 3.9122,-3.9122 c 0.0012,-0.0012 0.0031,-0.0012 0.0043,0 4e-4,5e-4 8e-4,0.0011 8e-4,0.0018 0.7348,5.0937 -2.7988,9.8186 -7.8925,10.5533 -0.4537,0.0655 -0.9116,0.0974 -1.37,0.0954 -3.4645,0.0032 -6.64661,-1.91 -8.26849,-4.9715 l -0.5331,0.2832 c 2.57669,4.861 8.60609,6.7128 13.46709,4.1361 3.2598,-1.728 5.2977,-5.1162 5.2962,-8.8057 0,-0.2527 -0.0118,-0.5056 -0.0302,-0.7577 0,-0.0017 0.0013,-0.003 0.003,-0.003 7e-4,0 0.0013,2e-4 0.0018,6e-4 l 3.3794,3.3809 0.4269,-0.4268 -4.4125,-4.4133 z"
             stroke="#ffc000"
             stroke-width="0.822115"
             fill="#ff04ff"
             transform="matrix(1.00071,0,0,1,417,336.761)"
             id="path38" />
        </g>
      </g>
    </g>
    <text
       fill="#ffffff"
       font-family="Aptos, Aptos_MSFontService, sans-serif"
       font-weight="400"
       font-size="16px"
       transform="matrix(1,0,0,0.999291,103.638,476)"
       id="text40">Headquarters</text>
    <text
       fill="#ffffff"
       font-family="Aptos, Aptos_MSFontService, sans-serif"
       font-weight="400"
       font-size="16px"
       transform="matrix(1,0,0,0.999291,248.073,298)"
       id="text41">Call center</text>
    <path
       d="m 174.5,543.614 c 0,-21.248 17.237,-38.472 38.5,-38.472 21.263,0 38.5,17.224 38.5,38.472 0,21.248 -17.237,38.473 -38.5,38.473 -21.263,0 -38.5,-17.225 -38.5,-38.473 z"
       stroke="#6e9cdf"
       stroke-width="3.00077"
       stroke-linejoin="round"
       stroke-miterlimit="10"
       fill="none"
       fill-rule="evenodd"
       id="path41" />
    <g
       id="g52">
      <g
         id="g51">
        <g
           id="g50">
          <path
             d="m 5.9333,11.0557 c 0.78545,-10e-4 1.49586,-0.4668 1.81005,-1.18665 h 1.74992 c 0.43693,0 0.79113,0.35415 0.79113,0.79115 v 5.1959 c 0.4035,-0.1486 0.8243,-0.245 1.2523,-0.2867 0.0769,-0.3526 0.1873,-0.697 0.3299,-1.0285 V 10.6602 C 11.865,9.35004 10.8034,8.28838 9.49327,8.28684 H 7.74335 C 7.30642,7.28573 6.14068,6.82839 5.13958,7.26528 4.13847,7.70221 3.68113,8.86794 4.11806,9.86905 4.433,10.5907 5.14595,11.0567 5.9333,11.0557 Z"
             fill="#f2f2f2"
             transform="matrix(1.00071,0,0,1,194,523.628)"
             id="path42" />
          <path
             d="M 7.472,22.6371 C 7.4542,22.6003 7.43996,22.5631 7.42334,22.5267 H 4.35108 c -0.43691,0 -0.7911,-0.3541 -0.7911,-0.7911 v -2.1454 c 1.0011,-0.437 1.45844,-1.6027 1.02155,-2.6038 -0.43692,-1.0011 -1.60266,-1.4584 -2.60376,-1.0216 -1.001106,0.437 -1.458468,1.6027 -1.021552,2.6038 0.199512,0.4571 0.564402,0.822 1.021552,1.0216 v 2.1454 c 0.00152,1.3102 1.0632,2.3718 2.37331,2.3734 H 8.55423 C 8.10508,23.6899 7.73809,23.1908 7.472,22.6371 Z"
             fill="#f2f2f2"
             transform="matrix(1.00071,0,0,1,194,523.628)"
             id="path43" />
          <path
             d="m 17.4043,6.14136 v 4.92704 c 0.5378,0.0196 1.0702,0.1136 1.5822,0.2792 V 6.14136 C 19.9877,5.70443 20.445,4.53869 20.0081,3.5376 19.5712,2.5365 18.4054,2.07914 17.4043,2.51605 16.4032,2.95297 15.9459,4.1187 16.3828,5.1198 c 0.1995,0.45714 0.5644,0.82204 1.0215,1.02156 z"
             fill="#f2f2f2"
             transform="matrix(1.00071,0,0,1,194,523.628)"
             id="path44" />
          <path
             d="m 25.4182,14.2004 c 0.1013,0.0712 0.1978,0.1479 0.2928,0.2254 v -1.3923 c 0,-0.437 0.3541,-0.7911 0.7911,-0.7911 h 2.3733 c 1.3101,-0.0016 2.3718,-1.0632 2.3733,-2.37335 V 9.30578 C 32.2498,8.86885 32.7071,7.70312 32.2702,6.70201 31.8333,5.70091 30.6676,5.24357 29.6665,5.68046 28.6654,6.11739 28.208,7.28312 28.6449,8.28423 c 0.1995,0.45714 0.5644,0.82204 1.0216,1.02155 v 0.56327 c 0,0.43695 -0.3542,0.79115 -0.7911,0.79115 h -2.3733 c -1.3102,0.0013 -2.3721,1.0631 -2.3734,2.3733 v 0.5205 c 0.4588,0.1522 0.8931,0.3699 1.2895,0.6464 z"
             fill="#f2f2f2"
             transform="matrix(1.00071,0,0,1,194,523.628)"
             id="path45" />
          <path
             d="m 13.4488,25.4768 v 1.0055 c 0,0.4369 -0.3542,0.7911 -0.7911,0.7911 H 10.2844 C 8.97419,27.2747 7.91237,28.3365 7.91106,29.6467 V 30.21 c -1.0011,0.4369 -1.45844,1.6026 -1.02155,2.6037 0.43692,1.0011 1.60266,1.4585 2.60376,1.0216 C 10.4944,33.3984 10.9517,32.2326 10.5148,31.2315 10.3153,30.7743 9.95041,30.4095 9.49327,30.21 v -0.5633 c 0,-0.4369 0.35418,-0.7911 0.79113,-0.7911 h 2.3733 c 1.3101,-0.0015 2.3718,-1.0632 2.3733,-2.3733 v -1.0055 z"
             fill="#f2f2f2"
             transform="matrix(1.00071,0,0,1,194,523.628)"
             id="path46" />
          <path
             d="m 35.2042,16.989 c -0.7854,10e-4 -1.4958,0.4668 -1.81,1.1867 h -3.9211 c 0.4815,0.4361 0.8558,0.9776 1.0937,1.5822 h 2.8274 c 0.4369,1.0011 1.6026,1.4584 2.6037,1.0215 1.0011,-0.4369 1.4585,-1.6026 1.0216,-2.6037 -0.3149,-0.7216 -1.0279,-1.1877 -1.8153,-1.1867 z"
             fill="#f2f2f2"
             transform="matrix(1.00071,0,0,1,194,523.628)"
             id="path47" />
          <path
             d="m 31.6442,27.6689 c -0.7854,0.0011 -1.4958,0.4668 -1.81,1.1867 h -1.7499 c -0.437,0 -0.7911,-0.3542 -0.7911,-0.7911 v -2.6474 c -0.226,0.0383 -0.4547,0.0583 -0.6839,0.0597 H 25.711 v 2.5877 c 0.0015,1.3101 1.0632,2.3718 2.3733,2.3733 h 1.7499 c 0.4369,1.0011 1.6027,1.4585 2.6038,1.0216 1.0011,-0.437 1.4584,-1.6027 1.0215,-2.6038 -0.3149,-0.7216 -1.0279,-1.1877 -1.8153,-1.1867 z"
             fill="#f2f2f2"
             transform="matrix(1.00071,0,0,1,194,523.628)"
             id="path48" />
          <path
             d="m 20.9643,31.3966 v -5.9198 h -1.5822 v 5.9198 c -1.0011,0.437 -1.4584,1.6027 -1.0216,2.6038 0.437,1.0011 1.6027,1.4584 2.6038,1.0215 1.0011,-0.4369 1.4585,-1.6026 1.0216,-2.6037 -0.1995,-0.4572 -0.5644,-0.8221 -1.0216,-1.0216 z"
             fill="#f2f2f2"
             transform="matrix(1.00071,0,0,1,194,523.628)"
             id="path49" />
          <path
             d="m 26.6093,18.2532 c -0.0852,-0.0022 -0.1703,0.002 -0.2548,0.0127 v -0.0127 c -0.0022,-1.2293 -0.6055,-2.3798 -1.6154,-3.0806 -1.0171,-0.707 -2.3116,-0.8835 -3.4809,-0.4746 -0.9819,-1.86 -3.099,-2.8186 -5.1446,-2.3295 -2.0417,0.4719 -3.4953,2.2798 -3.5176,4.3753 v 0.0395 c -1.3959,-0.2216 -2.80088,0.3404 -3.65887,1.4636 -0.84914,1.1154 -1.0019,2.6124 -0.39556,3.8764 0.61505,1.2702 1.87963,2.0984 3.28983,2.1546 l 1.2219,0.0126 h 13.556 c 1.6671,0.0191 3.0341,-1.3169 3.0532,-2.9841 0.0191,-1.6672 -1.317,-3.0341 -2.9841,-3.0532 -0.0231,-3e-4 -0.0461,-3e-4 -0.0691,0 z"
             fill="#f2f2f2"
             transform="matrix(1.00071,0,0,1,194,523.628)"
             id="path50" />
        </g>
      </g>
    </g>
    <text
       fill="#ffffff"
       font-family="Aptos, Aptos_MSFontService, sans-serif"
       font-weight="400"
       font-size="16px"
       transform="matrix(1,0,0,0.999291,251.812,586)"
       id="text52">DOM</text>
    <text
       fill="#ffffff"
       font-family="Aptos, Aptos_MSFontService, sans-serif"
       font-weight="400"
       font-size="16px"
       transform="matrix(1,0,0,0.999291,614.082,298)"
       id="text53">Store</text>
    <text
       fill="#ffffff"
       font-family="Aptos, Aptos_MSFontService, sans-serif"
       font-weight="400"
       font-size="16px"
       transform="matrix(1,0,0,0.999291,766.347,298)"
       id="text54">E</text>
    <text
       fill="#ffffff"
       font-family="Aptos, Aptos_MSFontService, sans-serif"
       font-weight="400"
       font-size="16px"
       transform="matrix(1,0,0,0.999291,775.182,298)"
       id="text55">-</text>
    <text
       fill="#ffffff"
       font-family="Aptos, Aptos_MSFontService, sans-serif"
       font-weight="400"
       font-size="16px"
       transform="matrix(1,0,0,0.999291,780.684,298)"
       id="text56">commerce</text>
    <text
       fill="#ffffff"
       font-family="Aptos, Aptos_MSFontService, sans-serif"
       font-weight="400"
       font-size="16px"
       transform="matrix(1,0,0,0.999291,560.802,476)"
       id="text57">Commerce Scale Unit</text>
    <path
       d="m 6.66367,-0.666361 213.81533,9.9e-5 V 0.666466 L 6.66367,0.666367 Z M 7.99637,3.99819 0,0 7.99637,-3.99818 Z M 219.147,-3.99808 227.143,1.04939e-4 219.147,3.99829 Z"
       fill="#ffc000"
       transform="matrix(-1.00071,0,0,1,550.804,372.236)"
       id="path57" />
    <path
       d="m 70.5,178.479 c 0,-5.577 4.5245,-10.098 10.1057,-10.098 H 883.394 c 5.582,0 10.106,4.521 10.106,10.098 v 453.467 c 0,5.577 -4.524,10.098 -10.106,10.098 H 80.6057 C 75.0245,642.044 70.5,637.523 70.5,631.946 Z"
       stroke="#8d8d8d"
       stroke-width="1.00026"
       stroke-linejoin="round"
       stroke-miterlimit="10"
       fill="none"
       fill-rule="evenodd"
       id="path58" />
    <path
       d="m 380.5,465.17 c 0,-29.25 23.729,-52.962 53,-52.962 29.271,0 53,23.712 53,52.962 0,29.25 -23.729,52.962 -53,52.962 -29.271,0 -53,-23.712 -53,-52.962 z"
       stroke="#bfbfbf"
       stroke-width="1.13362"
       stroke-linejoin="round"
       stroke-miterlimit="10"
       fill="#005aa1"
       fill-rule="evenodd"
       id="path59" />
    <text
       fill="#ffffff"
       font-family="Aptos, Aptos_MSFontService, sans-serif"
       font-weight="400"
       font-size="15px"
       transform="matrix(1,0,0,0.999291,403.836,452)"
       id="text59">Inventory</text>
    <text
       fill="#ffffff"
       font-family="Aptos, Aptos_MSFontService, sans-serif"
       font-weight="400"
       font-size="15px"
       transform="matrix(1,0,0,0.999291,406.67,469)"
       id="text60">Visibility</text>
    <text
       fill="#ffffff"
       font-family="Aptos, Aptos_MSFontService, sans-serif"
       font-weight="400"
       font-size="15px"
       transform="matrix(1,0,0,0.999291,410.671,487)"
       id="text61">s</text>
    <text
       fill="#ffffff"
       font-family="Aptos, Aptos_MSFontService, sans-serif"
       font-weight="400"
       font-size="15px"
       transform="matrix(1,0,0,0.999291,417.839,487)"
       id="text62">ervice</text>
    <path
       d="m 374.649,462.75 -46.009,-31.256 0.75,-1.102 46.008,31.256 z m 1.521,-4.607 4.368,7.802 -8.867,-1.189 z m -48.302,-23.144 -4.368,-7.802 8.867,1.189 z"
       fill="#ffc000"
       id="path62" />
    <path
       d="M 6.0446,2.88283 58.6061,34.7256 57.9156,35.8655 5.35404,4.02269 Z M 4.76754,7.56293 0,0 8.91087,0.723722 Z m 54.42506,23.62247 4.7675,7.5629 -8.9108,-0.7237 z"
       fill="#ffc000"
       transform="matrix(1.00071,0,0,-1,486.5,465.945)"
       id="path63" />
    <path
       d="m 550.5,526.127 c 0,-5.519 4.477,-9.993 10,-9.993 h 201 c 5.523,0 10,4.474 10,9.993 v 39.971 c 0,5.519 -4.477,9.993 -10,9.993 h -201 c -5.523,0 -10,-4.474 -10,-9.993 z"
       stroke="#6e9cdf"
       stroke-width="3.00077"
       stroke-linejoin="round"
       stroke-miterlimit="10"
       fill="none"
       fill-rule="evenodd"
       id="path64" />
    <g
       id="g72">
      <g
         id="g71">
        <g
           id="g70">
          <path
             d="m 3.77856,21.6408 v 7.9007 H 11.6792 V 21.6408 Z M 6.1831,24.0454 H 4.80908 v -1.374 H 6.1831 Z"
             fill="#f2f2f2"
             transform="matrix(1.03104,0,0,1,644,529.624)"
             id="path65" />
          <path
             d="m 12.7097,21.6408 v 7.9007 h 7.9006 v -7.9007 z m 2.4045,2.4046 h -1.374 v -1.374 h 1.374 z"
             fill="#f2f2f2"
             transform="matrix(1.03104,0,0,1,644,529.624)"
             id="path66" />
          <path
             d="m 8.24413,12.7097 v 7.9006 h 7.90067 v -7.9006 z m 2.40457,2.4045 H 9.27465 v -1.374 h 1.37405 z"
             fill="#f2f2f2"
             transform="matrix(1.03104,0,0,1,644,529.624)"
             id="path67" />
          <path
             d="m 17.1753,12.7097 v 7.9006 h 7.9006 v -7.9006 z m 2.4045,2.4045 h -1.374 v -1.374 h 1.374 z"
             fill="#f2f2f2"
             transform="matrix(1.03104,0,0,1,644,529.624)"
             id="path68" />
          <path
             d="m 12.7097,3.77856 v 7.90064 h 7.9006 V 3.77856 Z m 2.4045,2.40454 h -1.374 V 4.80908 h 1.374 z"
             fill="#f2f2f2"
             transform="matrix(1.03104,0,0,1,644,529.624)"
             id="path69" />
          <path
             d="m 21.6408,21.6408 v 7.9007 h 7.5572 v -7.9007 z m 2.4046,2.4046 h -1.374 v -1.374 h 1.374 z"
             fill="#f2f2f2"
             transform="matrix(1.03104,0,0,1,644,529.624)"
             id="path70" />
        </g>
      </g>
    </g>
    <text
       fill="#ffffff"
       font-family="Aptos, Aptos_MSFontService, sans-serif"
       font-weight="400"
       font-size="16px"
       transform="matrix(1,0,0,0.999291,559.998,599)"
       id="text72">Third</text>
    <text
       fill="#ffffff"
       font-family="Aptos, Aptos_MSFontService, sans-serif"
       font-weight="400"
       font-size="16px"
       transform="matrix(1,0,0,0.999291,594.454,599)"
       id="text73">-</text>
    <text
       fill="#ffffff"
       font-family="Aptos, Aptos_MSFontService, sans-serif"
       font-weight="400"
       font-size="16px"
       transform="matrix(1,0,0,0.999291,599.955,599)"
       id="text74">party</text>
    <text
       fill="#ffffff"
       font-family="Aptos, Aptos_MSFontService, sans-serif"
       font-weight="400"
       font-size="16px"
       transform="matrix(1,0,0,0.999291,638.465,599)"
       id="text75">s</text>
    <text
       fill="#ffffff"
       font-family="Aptos, Aptos_MSFontService, sans-serif"
       font-weight="400"
       font-size="16px"
       transform="matrix(1,0,0,0.999291,646.107,599)"
       id="text76">ystem</text>
    <path
       d="M 543.967,545.944 H 433.5 c -0.368,0 -0.667,-0.298 -0.667,-0.666 v -20.482 h 1.334 v 20.482 l -0.667,-0.667 h 110.467 z m -1.333,-4.664 8.002,3.998 -8.002,3.998 z m -113.135,-15.151 4.001,-7.997 4.001,7.997 z"
       fill="#ffc000"
       id="path76" />
    <path
       d="m 371,466.169 c 0,-34.493 27.982,-62.455 62.5,-62.455 34.518,0 62.5,27.962 62.5,62.455 0,34.494 -27.982,62.456 -62.5,62.456 -34.518,0 -62.5,-27.962 -62.5,-62.456 z"
       stroke="#ffffff"
       stroke-width="2.00051"
       stroke-linejoin="round"
       stroke-miterlimit="10"
       stroke-dasharray="2.00051, 2.00051"
       fill="none"
       fill-rule="evenodd"
       id="path77" />
    <g
       id="g80">
      <g
         id="g79">
        <g
           id="g78">
          <path
             d="M 19.2364,9.90964 H 8.7438 V 5.24628 h 10.4926 z m 0,4.08046 h -1.7488 v -1.7488 h 1.7488 z m 0,2.9146 h -1.7488 v -1.7488 h 1.7488 z m 0,2.9146 h -1.7488 v -1.7488 h 1.7488 z m 0,2.9146 h -1.7488 v -1.7488 h 1.7488 z M 16.3218,13.9901 H 14.573 v -1.7488 h 1.7488 z m 0,2.9146 H 14.573 v -1.7488 h 1.7488 z m 0,2.9146 H 14.573 v -1.7488 h 1.7488 z m 0,2.9146 H 14.573 v -1.7488 h 1.7488 z m -2.9146,-8.7438 h -1.7488 v -1.7488 h 1.7488 z m 0,2.9146 h -1.7488 v -1.7488 h 1.7488 z m 0,2.9146 h -1.7488 v -1.7488 h 1.7488 z m 0,2.9146 H 8.7438 v -1.7488 h 4.6634 z M 8.7438,18.0705 h 1.7488 v 1.7488 H 8.7438 Z m 0,-2.9146 h 1.7488 v 1.7488 H 8.7438 Z m 0,-2.9146 h 1.7488 v 1.7488 H 8.7438 Z M 20.9851,2.33168 H 6.99504 c -0.64121,0 -1.16584,0.52463 -1.16584,1.16584 V 24.4826 c 0,0.6412 0.52463,1.1659 1.16584,1.1659 H 20.9851 c 0.6412,0 1.1659,-0.5247 1.1659,-1.1659 V 3.49752 c 0,-0.64121 -0.5247,-1.16584 -1.1659,-1.16584 z"
             fill="#ffffff"
             transform="matrix(1.00071,0,0,1,353,503.643)"
             id="path78" />
        </g>
      </g>
    </g>
  </g>
</svg>
