<svg width="2807" height="2518" xmlns="http://www.w3.org/2000/svg" xmlns:xlink="http://www.w3.org/1999/xlink" xml:space="preserve" overflow="hidden"><defs><clipPath id="clip0"><rect x="413" y="-16" width="2807" height="2518"/></clipPath></defs><g clip-path="url(#clip0)" transform="translate(-413 16)"><rect x="413" y="-16.0002" width="2807" height="2518" fill="#FFFFFF"/><rect x="1519.5" y="7.50007" width="1164" height="248" stroke="#042433" stroke-width="6.875" stroke-miterlimit="8" fill="#156082"/><text fill="#FFFFFF" font-family="Aptos,Aptos_MSFontService,sans-serif" font-weight="400" font-size="64" transform="matrix(1 0 0 1 1824.02 113)">Sales order creation</text><text fill="#FFFFFF" font-family="Aptos,Aptos_MSFontService,sans-serif" font-weight="400" font-size="64" transform="matrix(1 0 0 1 1574.44 190)">(With or without inventory reservation)</text><rect x="910.5" y="487.5" width="1151" height="275" stroke="#042433" stroke-width="6.875" stroke-miterlimit="8" fill="#156082"/><text fill="#FFFFFF" font-family="Aptos,Aptos_MSFontService,sans-serif" font-weight="400" font-size="64" transform="matrix(1 0 0 1 1295.08 568)">Load creation</text><text fill="#FFFFFF" font-family="Aptos,Aptos_MSFontService,sans-serif" font-weight="400" font-size="64" transform="matrix(1 0 0 1 961.319 645)">(</text><text fill="#FFFFFF" font-family="Aptos,Aptos_MSFontService,sans-serif" font-weight="400" font-size="64" transform="matrix(1 0 0 1 980.225 645)">Outbound load </text><text fill="#FFFFFF" font-family="Aptos,Aptos_MSFontService,sans-serif" font-weight="400" font-size="64" transform="matrix(1 0 0 1 1412.2 645)">planning workbench </text><text fill="#FFFFFF" font-family="Aptos,Aptos_MSFontService,sans-serif" font-weight="400" font-size="64" transform="matrix(1 0 0 1 1987.37 645)">/ </text><text fill="#FFFFFF" font-family="Aptos,Aptos_MSFontService,sans-serif" font-weight="400" font-size="64" transform="matrix(1 0 0 1 1127.95 722)">Load building </text><text fill="#FFFFFF" font-family="Aptos,Aptos_MSFontService,sans-serif" font-weight="400" font-size="64" transform="matrix(1 0 0 1 1514.83 722)">workbench)</text><path d="M0-3.4375 36.1618-3.4375 36.1618 0.382546 32.7243-3.05495 42.5315-3.05495 42.5315 3.82005 29.2868 3.82005 29.2868 0 32.7243 3.4375 0 3.4375ZM37.9482-13.3675 65.4482 0.382546 37.9482 14.1325Z" fill="#156082" transform="matrix(1.83697e-16 1 1 -1.83697e-16 2101.5 255.5)"/><path d="M2348.5 319.5 2482.17 319.5 2482.17 319.5 2682.67 319.5 3150.5 319.5 3150.5 356.667 3150.5 356.667 3150.5 412.417 3150.5 542.5 2682.67 542.5 2482.17 542.5 2482.17 542.5 2348.5 542.5 2348.5 412.417 2186.22 390.234 2348.5 356.667Z" stroke="#042433" stroke-width="6.875" stroke-miterlimit="8" fill="#156082" fill-rule="evenodd"/><text fill="#FFFFFF" font-family="Aptos,Aptos_MSFontService,sans-serif" font-weight="400" font-size="64" transform="matrix(1 0 0 1 2491.68 374)">Create load before </text><text fill="#FFFFFF" font-family="Aptos,Aptos_MSFontService,sans-serif" font-weight="400" font-size="64" transform="matrix(1 0 0 1 2469.09 451)">“Releasing orders to </text><text fill="#FFFFFF" font-family="Aptos,Aptos_MSFontService,sans-serif" font-weight="400" font-size="64" transform="matrix(1 0 0 1 2565.04 528)">warehouse</text><text fill="#FFFFFF" font-family="Aptos,Aptos_MSFontService,sans-serif" font-weight="400" font-size="64" transform="matrix(1 0 0 1 2870.89 528)">”? </text><path d="M2033.5 389 2102 320.5 2170.5 389 2102 457.5Z" stroke="#042433" stroke-width="6.875" stroke-miterlimit="8" fill="#156082" fill-rule="evenodd"/><path d="M0-3.4375 551.433-3.4375 551.433 75.7968 544.558 75.7968 544.558 0 547.996 3.4375 0 3.4375ZM561.746 71.2134 547.996 98.7134 534.246 71.2134Z" fill="#156082" transform="matrix(-1 1.22465e-16 1.22465e-16 1 2033.5 389.5)"/><text font-family="Aptos,Aptos_MSFontService,sans-serif" font-weight="400" font-size="64" transform="matrix(1 0 0 1 1924.53 368)">Yes</text><path d="M0-3.4375 189.658-3.4375 189.658 0.729724 186.221-2.70778 349.525-2.70778 349.525 4.16722 182.783 4.16722 182.783 0 186.221 3.4375 0 3.4375ZM344.941-13.0203 372.441 0.729724 344.941 14.4797Z" fill="#156082" transform="matrix(1.83697e-16 1 1 -1.83697e-16 2101.5 457.5)"/><text font-family="Aptos,Aptos_MSFontService,sans-serif" font-weight="400" font-size="64" transform="matrix(1 0 0 1 2122.37 506)">No</text><rect x="1618.5" y="830.5" width="969" height="211" stroke="#042433" stroke-width="6.875" stroke-miterlimit="8" fill="#156082"/><text fill="#FFFFFF" font-family="Aptos,Aptos_MSFontService,sans-serif" font-weight="400" font-size="64" transform="matrix(1 0 0 1 1731.02 918)">Release to warehouse with </text><text fill="#FFFFFF" font-family="Aptos,Aptos_MSFontService,sans-serif" font-weight="400" font-size="64" transform="matrix(1 0 0 1 1811.43 995)">reservation if needed</text><path d="M0-3.4375 177.09-3.4375 177.09 109.484 170.215 109.484 170.215 0 173.652 3.4375 0 3.4375ZM187.402 104.901 173.652 132.401 159.902 104.901Z" fill="#156082" transform="matrix(1.83697e-16 1 1 -1.83697e-16 1485.5 762.5)"/><rect x="1619.5" y="1102.5" width="969" height="212" stroke="#042433" stroke-width="6.875" stroke-miterlimit="8" fill="#156082"/><text fill="#FFFFFF" font-family="Aptos,Aptos_MSFontService,sans-serif" font-weight="400" font-size="64" transform="matrix(1 0 0 1 1747.42 1190)">Shipment creation with or </text><text fill="#FFFFFF" font-family="Aptos,Aptos_MSFontService,sans-serif" font-weight="400" font-size="64" transform="matrix(1 0 0 1 1663.06 1267)">without </text><text fill="#FFFFFF" font-family="Aptos,Aptos_MSFontService,sans-serif" font-weight="400" font-size="64" transform="matrix(1 0 0 1 1886.5 1267)">shipment consolidation</text><path d="M0-3.4375 34.0533-3.4375 34.0533 0.933268 30.6158-2.50423 38.3149-2.50423 38.3149 4.37077 27.1783 4.37077 27.1783 0 30.6158 3.4375 0 3.4375ZM33.7315-12.8167 61.2315 0.933268 33.7315 14.6833Z" fill="#156082" transform="matrix(1.83697e-16 1 1 -1.83697e-16 2102.5 1041.5)"/><rect x="1388.5" y="1631.5" width="1431" height="270" stroke="#042433" stroke-width="6.875" stroke-miterlimit="8" fill="#156082"/><text fill="#FFFFFF" font-family="Aptos,Aptos_MSFontService,sans-serif" font-weight="400" font-size="64" transform="matrix(1 0 0 1 1869.88 1709)">Wave processing</text><text fill="#FFFFFF" font-family="Aptos,Aptos_MSFontService,sans-serif" font-weight="400" font-size="64" transform="matrix(1 0 0 1 1466.11 1786)">(</text><text fill="#FFFFFF" font-family="Aptos,Aptos_MSFontService,sans-serif" font-weight="400" font-size="64" transform="matrix(1 0 0 1 1485.02 1786)">Simple or advanced load </text><text fill="#FFFFFF" font-family="Aptos,Aptos_MSFontService,sans-serif" font-weight="400" font-size="64" transform="matrix(1 0 0 1 2183.18 1786)">building processing)</text><text fill="#FFFFFF" font-family="Aptos,Aptos_MSFontService,sans-serif" font-weight="400" font-size="64" transform="matrix(1 0 0 1 1624.72 1863)">Including warehouse </text><text fill="#FFFFFF" font-family="Aptos,Aptos_MSFontService,sans-serif" font-weight="400" font-size="64" transform="matrix(1 0 0 1 2214.3 1863)">work process </text><path d="M0-3.4375 33.327-3.4375 33.327 0.693635 29.8895-2.74386 36.8623-2.74386 36.8623 4.13113 26.452 4.13113 26.452 0 29.8895 3.4375 0 3.4375ZM32.2789-13.0564 59.7789 0.693635 32.2789 14.4436Z" fill="#156082" transform="matrix(1.83697e-16 1 1 -1.83697e-16 2103.5 1314.5)"/><rect x="1689.5" y="1950.5" width="836" height="193" stroke="#042433" stroke-width="6.875" stroke-miterlimit="8" fill="#156082"/><text fill="#FFFFFF" font-family="Aptos,Aptos_MSFontService,sans-serif" font-weight="400" font-size="64" transform="matrix(1 0 0 1 1759.56 2029)">Outbound load shipment </text><text fill="#FFFFFF" font-family="Aptos,Aptos_MSFontService,sans-serif" font-weight="400" font-size="64" transform="matrix(1 0 0 1 1928.57 2106)">confirmation</text><rect x="1525.5" y="2190.5" width="1165" height="270" stroke="#042433" stroke-width="6.875" stroke-miterlimit="8" fill="#156082"/><text fill="#FFFFFF" font-family="Aptos,Aptos_MSFontService,sans-serif" font-weight="400" font-size="64" transform="matrix(1 0 0 1 1561.72 2269)">Sales packing slip processing from load</text><text fill="#FFFFFF" font-family="Aptos,Aptos_MSFontService,sans-serif" font-weight="400" font-size="64" transform="matrix(1 0 0 1 1643.51 2346)">(Manual or automatic via periodic </text><text fill="#FFFFFF" font-family="Aptos,Aptos_MSFontService,sans-serif" font-weight="400" font-size="64" transform="matrix(1 0 0 1 1774.37 2423)">background processing)</text><path d="M0-3.4375 4.46453-3.4375 4.66121 27.2857-2.21365 27.3297-2.38847 0.0220056 1.04896 3.4375 0 3.4375ZM14.789 22.2033 2.09787 50.2077-12.691 23.2522Z" fill="#156082" transform="matrix(-1 0 0 1 2104.6 1901.5)"/><path d="M0.00220114-3.4375 24.425-3.42186 24.4206 3.45314-0.00220114 3.4375ZM19.8864-13.7499 47.3393 0.093832 19.7926 13.7499Z" fill="#156082" transform="matrix(1.83697e-16 1 1 -1.83697e-16 2107.5 2143.5)"/><path d="M2036.5 1442.5 2104.5 1373.5 2172.5 1442.5 2104.5 1511.5Z" stroke="#042433" stroke-width="6.875" stroke-miterlimit="8" fill="#156082" fill-rule="evenodd"/><path d="M0-3.4375 63.5272-3.4375 63.5272 0.0584646 60.0897-3.37904 97.2627-3.37904 97.2627 3.49596 56.6522 3.49596 56.6522 0 60.0897 3.4375 0 3.4375ZM92.6793-13.6915 120.179 0.0584646 92.6793 13.8085Z" fill="#156082" transform="matrix(1.83697e-16 1 1 -1.83697e-16 2104.5 1511.5)"/><path d="M2360.5 1368.5 2494.17 1368.5 2494.17 1368.5 2694.67 1368.5 3162.5 1368.5 3162.5 1405.67 3162.5 1405.67 3162.5 1461.42 3162.5 1591.5 2694.67 1591.5 2494.17 1591.5 2494.17 1591.5 2360.5 1591.5 2360.5 1461.42 2198.22 1439.23 2360.5 1405.67Z" stroke="#042433" stroke-width="6.875" stroke-miterlimit="8" fill="#156082" fill-rule="evenodd"/><text fill="#FFFFFF" font-family="Aptos,Aptos_MSFontService,sans-serif" font-weight="400" font-size="64" transform="matrix(1 0 0 1 2546.12 1461)">External shared </text><text fill="#FFFFFF" font-family="Aptos,Aptos_MSFontService,sans-serif" font-weight="400" font-size="64" transform="matrix(1 0 0 1 2592.94 1538)">warehouse?</text><text font-family="Aptos,Aptos_MSFontService,sans-serif" font-weight="400" font-size="64" transform="matrix(1 0 0 1 2115.16 1562)">No</text><path d="M0-3.4375 393.915-3.4375 393.915 0.545669 390.478-2.89183 758.039-2.89183 758.039 3.98317 387.04 3.98317 387.04 0 390.478 3.4375 0 3.4375ZM753.455-13.2043 780.955 0.545669 753.455 14.2957Z" fill="#156082" transform="matrix(-1 1.22465e-16 1.22465e-16 1 2036.46 1442.5)"/><text font-family="Aptos,Aptos_MSFontService,sans-serif" font-weight="400" font-size="64" transform="matrix(1 0 0 1 1900.77 1429)">Yes</text><rect x="520.5" y="1235.5" width="735" height="415" stroke="#042433" stroke-width="6.875" stroke-miterlimit="8" fill="#E97132"/><text fill="#FFFFFF" font-family="Aptos,Aptos_MSFontService,sans-serif" font-weight="400" font-size="64" transform="matrix(1 0 0 1 585.846 1309)">Outbound warehouse </text><text fill="#FFFFFF" font-family="Aptos,Aptos_MSFontService,sans-serif" font-weight="400" font-size="64" transform="matrix(1 0 0 1 669.95 1386)">processing with </text><text fill="#FFFFFF" font-family="Aptos,Aptos_MSFontService,sans-serif" font-weight="400" font-size="64" transform="matrix(1 0 0 1 729.717 1463)">Warehouse </text><text fill="#FFFFFF" font-family="Aptos,Aptos_MSFontService,sans-serif" font-weight="400" font-size="64" transform="matrix(1 0 0 1 637.958 1540)">management only </text><text fill="#FFFFFF" font-family="Aptos,Aptos_MSFontService,sans-serif" font-weight="400" font-size="64" transform="matrix(1 0 0 1 807.015 1617)">mode</text><path d="M890.938 1650.5 890.938 1762.05 887.5 1762.05 890.938 1758.61 890.938 1843.8 884.063 1843.8 884.063 1755.17 887.5 1755.17 884.063 1758.61 884.063 1650.5ZM901.25 1839.22 887.5 1866.72 873.75 1839.22Z" fill="#156082"/><rect x="469.5" y="1866.5" width="836" height="269" stroke="#042433" stroke-width="6.875" stroke-miterlimit="8" fill="#156082"/><text fill="#FFFFFF" font-family="Aptos,Aptos_MSFontService,sans-serif" font-weight="400" font-size="64" transform="matrix(1 0 0 1 614.377 1944)">External warehouse </text><text fill="#FFFFFF" font-family="Aptos,Aptos_MSFontService,sans-serif" font-weight="400" font-size="64" transform="matrix(1 0 0 1 504.537 2021)">shipment order update incl. </text><text fill="#FFFFFF" font-family="Aptos,Aptos_MSFontService,sans-serif" font-weight="400" font-size="64" transform="matrix(1 0 0 1 569.69 2098)">load creation </text><text fill="#FFFFFF" font-family="Aptos,Aptos_MSFontService,sans-serif" font-weight="400" font-size="64" transform="matrix(1 0 0 1 947.517 2098)">if needed</text><path d="M0-3.4375 194.271-3.4375 194.271 614.596 187.396 614.596 187.396 0 190.833 3.4375 0 3.4375ZM204.583 610.012 190.833 637.512 177.083 610.012Z" fill="#156082" transform="matrix(1.83697e-16 1 1 -1.83697e-16 887.5 2135.5)"/></g></svg>