<?xml version="1.0" encoding="UTF-8" standalone="no"?>
<svg
   width="1419.4791"
   height="795.36115"
   overflow="hidden"
   version="1.1"
   id="svg38"
   sodipodi:docname="Outbound-load-process.svg"
   inkscape:version="1.3 (0e150ed6c4, 2023-07-21)"
   xmlns:inkscape="http://www.inkscape.org/namespaces/inkscape"
   xmlns:sodipodi="http://sodipodi.sourceforge.net/DTD/sodipodi-0.dtd"
   xmlns="http://www.w3.org/2000/svg"
   xmlns:svg="http://www.w3.org/2000/svg">
  <defs
     id="defs38" />
  <sodipodi:namedview
     id="namedview38"
     pagecolor="#ffffff"
     bordercolor="#000000"
     borderopacity="0.25"
     inkscape:showpageshadow="2"
     inkscape:pageopacity="0.0"
     inkscape:pagecheckerboard="0"
     inkscape:deskcolor="#d1d1d1"
     inkscape:zoom="1.0598958"
     inkscape:cx="690.16216"
     inkscape:cy="379.7543"
     inkscape:window-width="2560"
     inkscape:window-height="1417"
     inkscape:window-x="-8"
     inkscape:window-y="-8"
     inkscape:window-maximized="1"
     inkscape:current-layer="svg38" />
  <g
     id="g38"
     transform="translate(-173.60197,-196.2457)">
    <rect
       x="0"
       y="0"
       width="1728"
       height="1152"
       fill="#ffffff"
       id="rect1" />
    <rect
       x="260"
       y="163"
       width="1210"
       height="871"
       fill="#ffffff"
       id="rect2" />
    <rect
       x="773"
       y="218"
       width="338"
       height="72"
       stroke="#042433"
       stroke-width="2"
       stroke-miterlimit="8"
       fill="#156082"
       id="rect3" />
    <text
       fill="#ffffff"
       font-family="Aptos, Aptos_MSFontService, sans-serif"
       font-weight="400"
       font-size="19px"
       transform="translate(868.477,250)"
       id="text3">Create sales order</text>
    <text
       fill="#ffffff"
       font-family="Aptos, Aptos_MSFontService, sans-serif"
       font-weight="400"
       font-size="16px"
       transform="translate(810.883,270)"
       id="text4">(With or without inventory reservation)</text>
    <rect
       x="596"
       y="358"
       width="334"
       height="80"
       stroke="#042433"
       stroke-width="2"
       stroke-miterlimit="8"
       fill="#156082"
       id="rect4" />
    <text
       fill="#ffffff"
       font-family="Aptos, Aptos_MSFontService, sans-serif"
       font-weight="400"
       font-size="19px"
       transform="translate(716.131,384)"
       id="text5">Create load</text>
    <text
       fill="#ffffff"
       font-family="Aptos, Aptos_MSFontService, sans-serif"
       font-weight="400"
       font-size="16px"
       transform="translate(636.864,404)"
       id="text6">(Outbound load planning workbench</text>
    <text
       fill="#ffffff"
       font-family="Aptos, Aptos_MSFontService, sans-serif"
       font-weight="400"
       font-size="16px"
       transform="translate(665.264,423)"
       id="text7">or Load building workbench)</text>
    <path
       d="m 0,-1 h 10.5198 v 1.111286 l -1.00001,-1 H 12.3728 V 1.11129 H 8.51979 V 0 l 1,1 H 0 Z m 11.0395,-2.88871 8,3.999996 -8,4.000004 z"
       fill="#156082"
       transform="matrix(0,1,1,0,942,290)"
       id="path7" />
    <path
       d="m 1053,306 h 43.67 v 0 h 65.5 152.83 v 12.667 0 19 V 382 h -152.83 -65.5 v 0 H 1053 V 337.667 L 967.172,330.106 1053,318.667 Z"
       stroke="#042433"
       stroke-width="2"
       stroke-miterlimit="8"
       fill="#156082"
       fill-rule="evenodd"
       id="path8" />
    <text
       fill="#ffffff"
       font-family="Aptos, Aptos_MSFontService, sans-serif"
       font-weight="400"
       font-size="19px"
       transform="translate(1070.82,339)"
       id="text8">Create load before releasing</text>
    <text
       fill="#ffffff"
       font-family="Aptos, Aptos_MSFontService, sans-serif"
       font-weight="400"
       font-size="19px"
       transform="translate(1097.41,362)"
       id="text9">orders to warehouse?</text>
    <path
       d="m 922,329 20,-20 20,20 -20,20 z"
       stroke="#042433"
       stroke-width="2"
       stroke-miterlimit="8"
       fill="#156082"
       fill-rule="evenodd"
       id="path9" />
    <path
       d="m 0,-1 h 160.417 v 23.05 h -2 V 0 l 1,1 H 0 Z m 163.417,21.7166 -4,8 -4,-8 z"
       fill="#156082"
       transform="matrix(-1,0,0,1,922.417,329)"
       id="path10" />
    <text
       font-family="Aptos, Aptos_MSFontService, sans-serif"
       font-weight="400"
       font-size="19px"
       transform="translate(890.835,323)"
       id="text10">Yes</text>
    <path
       d="m 0,-1 h 55.1733 v 1.212283 l -1,-1 H 101.68 V 1.21228 H 53.1733 V 0 l 1,1 H 0 Z m 100.347,-2.78772 8,4.000003 -8,3.999997 z"
       fill="#156082"
       transform="matrix(0,1,1,0,942,349)"
       id="path11" />
    <text
       font-family="Aptos, Aptos_MSFontService, sans-serif"
       font-weight="400"
       font-size="19px"
       transform="translate(948.388,363)"
       id="text11">No</text>
    <rect
       x="802"
       y="457"
       width="281"
       height="62"
       stroke="#042433"
       stroke-width="2"
       stroke-miterlimit="8"
       fill="#156082"
       id="rect11" />
    <text
       fill="#ffffff"
       font-family="Aptos, Aptos_MSFontService, sans-serif"
       font-weight="400"
       font-size="19px"
       transform="translate(834.541,483)"
       id="text12">Release to warehouse with</text>
    <text
       fill="#ffffff"
       font-family="Aptos, Aptos_MSFontService, sans-serif"
       font-weight="400"
       font-size="19px"
       transform="translate(857.934,506)"
       id="text13">reservation if needed</text>
    <path
       d="m 0,-1 h 51.5171 v 32.8499 h -2 V 0 l 1,1 H 0 Z m 54.5171,31.5165 -4,8 -4,-8 z"
       fill="#156082"
       transform="matrix(0,1,1,0,763,438)"
       id="path13" />
    <rect
       x="802"
       y="537"
       width="282"
       height="61"
       stroke="#042433"
       stroke-width="2"
       stroke-miterlimit="8"
       fill="#156082"
       id="rect13" />
    <text
       fill="#ffffff"
       font-family="Aptos, Aptos_MSFontService, sans-serif"
       font-weight="400"
       font-size="19px"
       transform="translate(813.695,562)"
       id="text14">Create shipment with or without</text>
    <text
       fill="#ffffff"
       font-family="Aptos, Aptos_MSFontService, sans-serif"
       font-weight="400"
       font-size="19px"
       transform="translate(847.275,585)"
       id="text15">shipment consolidation</text>
    <path
       d="m 0,-1 h 9.9064 v 1.271496 l -1,-1 h 2.2397 V 1.2715 H 7.9064 V 0 l 1,1 H 0 Z M 9.81281,-3.7285 17.8128,0.271496 9.81281,4.2715 Z"
       fill="#156082"
       transform="matrix(0,1,1,0,943,519)"
       id="path15" />
    <rect
       x="735"
       y="690"
       width="416"
       height="79"
       stroke="#042433"
       stroke-width="2"
       stroke-miterlimit="8"
       fill="#156082"
       id="rect15" />
    <text
       fill="#ffffff"
       font-family="Aptos, Aptos_MSFontService, sans-serif"
       font-weight="400"
       font-size="19px"
       transform="translate(846.537,715)"
       id="text16">Process wave, including</text>
    <text
       fill="#ffffff"
       font-family="Aptos, Aptos_MSFontService, sans-serif"
       font-weight="400"
       font-size="19px"
       transform="translate(842.864,738)"
       id="text17">warehouse work process</text>
    <text
       fill="#ffffff"
       font-family="Aptos, Aptos_MSFontService, sans-serif"
       font-weight="400"
       font-size="16px"
       transform="translate(783.884,758)"
       id="text18">(Simple or advanced load building processing)</text>
    <path
       d="m 0,-1 h 9.69512 v 1.201785 l -1,-1 H 10.7236 V 1.20178 H 7.69512 V 0 l 1,1 H 0 Z M 9.39024,-3.79822 17.3902,0.201785 9.39024,4.20178 Z"
       fill="#156082"
       transform="matrix(0,1,1,0,943,598)"
       id="path18" />
    <rect
       x="822"
       y="803"
       width="243"
       height="56"
       stroke="#042433"
       stroke-width="2"
       stroke-miterlimit="8"
       fill="#156082"
       id="rect18" />
    <text
       fill="#ffffff"
       font-family="Aptos, Aptos_MSFontService, sans-serif"
       font-weight="400"
       font-size="19px"
       transform="translate(849.76,826)"
       id="text19">Confirm outbound load</text>
    <text
       fill="#ffffff"
       font-family="Aptos, Aptos_MSFontService, sans-serif"
       font-weight="400"
       font-size="19px"
       transform="translate(905.68,849)"
       id="text20">shipment</text>
    <rect
       x="775"
       y="895"
       width="338"
       height="78"
       stroke="#042433"
       stroke-width="2"
       stroke-miterlimit="8"
       fill="#156082"
       id="rect20" />
    <text
       fill="#ffffff"
       font-family="Aptos, Aptos_MSFontService, sans-serif"
       font-weight="400"
       font-size="19px"
       transform="translate(797.877,921)"
       id="text21">Process sales packing slip from load</text>
    <text
       fill="#ffffff"
       font-family="Aptos, Aptos_MSFontService, sans-serif"
       font-weight="400"
       font-size="16px"
       transform="translate(785.857,941)"
       id="text22">(Manual or automatic via periodic background</text>
    <text
       fill="#ffffff"
       font-family="Aptos, Aptos_MSFontService, sans-serif"
       font-weight="400"
       font-size="16px"
       transform="translate(903.57,960)"
       id="text23">processing)</text>
    <path
       d="m 0,1 h -6.22579 l 1,-1 v 0.935748 l -1,-1 H 27.2817 V 1.93575 H -7.22579 V -1 H 0 Z m 25.9483,-4.06425 8,3.999998 -8,4.000002 z"
       fill="#156082"
       transform="matrix(0,1,1,0,943,769)"
       id="path23" />
    <path
       d="m 0,-1 h 18.8638 v 1.0274016 l -1,-0.9999996 H 29.061 V 1.0274 H 16.8638 V 0 l 1,1 H 0 Z m 27.7277,-2.9726 8,4.0000016 -8,3.9999984 z"
       fill="#156082"
       transform="matrix(0,1,1,0,944,859)"
       id="path24" />
    <path
       d="m 923,636 20,-20 20,20 -20,20 z"
       stroke="#042433"
       stroke-width="2"
       stroke-miterlimit="8"
       fill="#156082"
       fill-rule="evenodd"
       id="path25" />
    <path
       d="m 0,-1 h 18.4806 v 1.0170079 l -1,-0.9999999 h 10.814 V 1.01701 H 16.4806 V 0 l 1,1 H 0 Z m 26.9613,-2.98299 8,3.9999979 -8,4.0000021 z"
       fill="#156082"
       transform="matrix(0,1,1,0,943,656)"
       id="path26" />
    <path
       d="m 1083,610 h 39 v 0 h 58.5 136.5 v 10.833 0 16.25 V 675 H 1180.5 1122 v 0 h -39 V 637.083 L 963.447,635.427 1083,620.833 Z"
       stroke="#042433"
       stroke-width="2"
       stroke-miterlimit="8"
       fill="#156082"
       fill-rule="evenodd"
       id="path27" />
    <text
       fill="#ffffff"
       font-family="Aptos, Aptos_MSFontService, sans-serif"
       font-weight="400"
       font-size="19px"
       transform="translate(1137.54,637)"
       id="text27">External shared</text>
    <text
       fill="#ffffff"
       font-family="Aptos, Aptos_MSFontService, sans-serif"
       font-weight="400"
       font-size="19px"
       transform="translate(1151.16,660)"
       id="text28">warehouse?</text>
    <text
       font-family="Aptos, Aptos_MSFontService, sans-serif"
       font-weight="400"
       font-size="19px"
       transform="translate(946.289,670)"
       id="text29">No</text>
    <path
       d="m 0,-1 h 118.593 v 1.15874 l -1,-1 H 228.52 v 2 H 116.593 V 0 l 1,1 H 0 Z m 227.187,-2.84126 8,4 -8,4 z"
       fill="#156082"
       transform="matrix(-1,0,0,1,923.187,636)"
       id="path29" />
    <text
       font-family="Aptos, Aptos_MSFontService, sans-serif"
       font-weight="400"
       font-size="19px"
       transform="translate(883.922,632)"
       id="text30">Yes</text>
    <rect
       x="474"
       y="575"
       width="214"
       height="121"
       stroke="#042433"
       stroke-width="2"
       stroke-miterlimit="8"
       fill="#e97132"
       id="rect30" />
    <text
       fill="#ffffff"
       font-family="Aptos, Aptos_MSFontService, sans-serif"
       font-weight="400"
       font-size="19px"
       transform="translate(493.399,597)"
       id="text31">Outbound warehouse</text>
    <text
       fill="#ffffff"
       font-family="Aptos, Aptos_MSFontService, sans-serif"
       font-weight="400"
       font-size="19px"
       transform="translate(517.866,620)"
       id="text32">processing with</text>
    <text
       fill="#ffffff"
       font-family="Aptos, Aptos_MSFontService, sans-serif"
       font-weight="400"
       font-size="19px"
       transform="translate(535.253,642)"
       id="text33">Warehouse</text>
    <text
       fill="#ffffff"
       font-family="Aptos, Aptos_MSFontService, sans-serif"
       font-weight="400"
       font-size="19px"
       transform="translate(508.559,664)"
       id="text34">management only</text>
    <text
       fill="#ffffff"
       font-family="Aptos, Aptos_MSFontService, sans-serif"
       font-weight="400"
       font-size="19px"
       transform="translate(557.74,687)"
       id="text35">mode</text>
    <path
       d="m 582.28,696 v 4.45 H 581 l 1,-1 v 52.784 h -2 V 698.45 h 1.28 l -1,1 V 696 Z m 2.72,54.9 -4,8 -4,-8 z"
       fill="#156082"
       id="path35" />
    <rect
       x="451"
       y="759"
       width="260"
       height="78"
       stroke="#042433"
       stroke-width="2"
       stroke-miterlimit="8"
       fill="#156082"
       id="rect35" />
    <text
       fill="#ffffff"
       font-family="Aptos, Aptos_MSFontService, sans-serif"
       font-weight="400"
       font-size="19px"
       transform="translate(470.269,781)"
       id="text36">Update external warehouse</text>
    <text
       fill="#ffffff"
       font-family="Aptos, Aptos_MSFontService, sans-serif"
       font-weight="400"
       font-size="19px"
       transform="translate(481.043,804)"
       id="text37">shipment, including load</text>
    <text
       fill="#ffffff"
       font-family="Aptos, Aptos_MSFontService, sans-serif"
       font-weight="400"
       font-size="19px"
       transform="translate(508.169,826)"
       id="text38">creation if needed</text>
    <path
       d="m 0,-1 h 97.9898 v 188.071 h -2 V 0 l 1,1 H 0 Z m 100.99,186.738 -4.0002,8 -4,-8 z"
       fill="#156082"
       transform="matrix(0,1,1,0,581,837)"
       id="path38" />
  </g>
</svg>
