<svg width="2807" height="2579" xmlns="http://www.w3.org/2000/svg" xmlns:xlink="http://www.w3.org/1999/xlink" xml:space="preserve" overflow="hidden"><defs><clipPath id="clip0"><rect x="413" y="-52" width="2807" height="2579"/></clipPath></defs><g clip-path="url(#clip0)" transform="translate(-413 52)"><rect x="413" y="-51.9999" width="2807" height="2579" fill="#FFFFFF"/><rect x="1519.5" y="4.49997" width="1164" height="251" stroke="#042433" stroke-width="6.875" stroke-miterlimit="8" fill="#156082"/><text fill="#FFFFFF" font-family="Aptos,Aptos_MSFontService,sans-serif" font-weight="400" font-size="64" transform="matrix(1 0 0 1 1824.02 111)">Sales order creation</text><text fill="#FFFFFF" font-family="Aptos,Aptos_MSFontService,sans-serif" font-weight="400" font-size="64" transform="matrix(1 0 0 1 1574.44 188)">(With or without inventory reservation)</text><rect x="910.5" y="484.5" width="1151" height="278" stroke="#042433" stroke-width="6.875" stroke-miterlimit="8" fill="#156082"/><text fill="#FFFFFF" font-family="Aptos,Aptos_MSFontService,sans-serif" font-weight="400" font-size="64" transform="matrix(1 0 0 1 1295.08 566)">Load creation</text><text fill="#FFFFFF" font-family="Aptos,Aptos_MSFontService,sans-serif" font-weight="400" font-size="64" transform="matrix(1 0 0 1 961.319 643)">(</text><text fill="#FFFFFF" font-family="Aptos,Aptos_MSFontService,sans-serif" font-weight="400" font-size="64" transform="matrix(1 0 0 1 980.225 643)">Outbound load </text><text fill="#FFFFFF" font-family="Aptos,Aptos_MSFontService,sans-serif" font-weight="400" font-size="64" transform="matrix(1 0 0 1 1412.2 643)">planning workbench </text><text fill="#FFFFFF" font-family="Aptos,Aptos_MSFontService,sans-serif" font-weight="400" font-size="64" transform="matrix(1 0 0 1 1987.37 643)">/ </text><text fill="#FFFFFF" font-family="Aptos,Aptos_MSFontService,sans-serif" font-weight="400" font-size="64" transform="matrix(1 0 0 1 1127.95 720)">Load building </text><text fill="#FFFFFF" font-family="Aptos,Aptos_MSFontService,sans-serif" font-weight="400" font-size="64" transform="matrix(1 0 0 1 1514.83 720)">workbench)</text><path d="M0-3.4375 38.6292-3.4375 38.6292 0.382546 35.1917-3.05495 47.4667-3.05495 47.4667 3.82005 31.7542 3.82005 31.7542 0 35.1917 3.4375 0 3.4375ZM42.8834-13.3675 70.3834 0.382546 42.8834 14.1325Z" fill="#156082" transform="matrix(1.83697e-16 1 1 -1.83697e-16 2101.5 255.5)"/><path d="M2348.5 316.5 2482.17 316.5 2482.17 316.5 2682.67 316.5 3150.5 316.5 3150.5 354.167 3150.5 354.167 3150.5 410.667 3150.5 542.5 2682.67 542.5 2482.17 542.5 2482.17 542.5 2348.5 542.5 2348.5 410.667 2186.22 388.185 2348.5 354.167Z" stroke="#042433" stroke-width="6.875" stroke-miterlimit="8" fill="#156082" fill-rule="evenodd"/><text fill="#FFFFFF" font-family="Aptos,Aptos_MSFontService,sans-serif" font-weight="400" font-size="64" transform="matrix(1 0 0 1 2491.68 373)">Create load before </text><text fill="#FFFFFF" font-family="Aptos,Aptos_MSFontService,sans-serif" font-weight="400" font-size="64" transform="matrix(1 0 0 1 2469.09 450)">“Releasing orders to </text><text fill="#FFFFFF" font-family="Aptos,Aptos_MSFontService,sans-serif" font-weight="400" font-size="64" transform="matrix(1 0 0 1 2565.04 527)">warehouse</text><text fill="#FFFFFF" font-family="Aptos,Aptos_MSFontService,sans-serif" font-weight="400" font-size="64" transform="matrix(1 0 0 1 2870.89 527)">”? </text><path d="M2033.5 395 2102 325.5 2170.5 395 2102 464.5Z" stroke="#042433" stroke-width="6.875" stroke-miterlimit="8" fill="#156082" fill-rule="evenodd"/><path d="M0-3.4375 551.433-3.4375 551.433 66.0213 544.558 66.0213 544.558 0 547.996 3.4375 0 3.4375ZM561.746 61.438 547.996 88.938 534.246 61.438Z" fill="#156082" transform="matrix(-1 1.22465e-16 1.22465e-16 1 2033.5 395.5)"/><text fill="#002060" font-family="Aptos,Aptos_MSFontService,sans-serif" font-weight="400" font-size="64" transform="matrix(1 0 0 1 1924.53 367)">Yes</text><path d="M0-3.4375 184.731-3.4375 184.731 0.729724 181.294-2.70778 339.671-2.70778 339.671 4.16722 177.856 4.16722 177.856 0 181.294 3.4375 0 3.4375ZM335.087-13.0203 362.587 0.729724 335.087 14.4797Z" fill="#156082" transform="matrix(1.83697e-16 1 1 -1.83697e-16 2101.5 464.5)"/><text fill="#002060" font-family="Aptos,Aptos_MSFontService,sans-serif" font-weight="400" font-size="64" transform="matrix(1 0 0 1 2122.37 505)">No</text><rect x="1618.5" y="827.5" width="969" height="214" stroke="#042433" stroke-width="6.875" stroke-miterlimit="8" fill="#156082"/><text fill="#FFFFFF" font-family="Aptos,Aptos_MSFontService,sans-serif" font-weight="400" font-size="64" transform="matrix(1 0 0 1 1731.02 916)">Release to warehouse with </text><text fill="#FFFFFF" font-family="Aptos,Aptos_MSFontService,sans-serif" font-weight="400" font-size="64" transform="matrix(1 0 0 1 1811.43 993)">reservation </text><text fill="#FFFFFF" font-family="Aptos,Aptos_MSFontService,sans-serif" font-weight="400" font-size="64" transform="matrix(1 0 0 1 2135.57 993)">if needed</text><path d="M0-3.4375 175.6-3.4375 175.6 109.484 168.725 109.484 168.725 0 172.163 3.4375 0 3.4375ZM185.913 104.901 172.163 132.401 158.413 104.901Z" fill="#156082" transform="matrix(1.83697e-16 1 1 -1.83697e-16 1485.5 762.5)"/><rect x="1619.5" y="1099.5" width="969" height="215" stroke="#042433" stroke-width="6.875" stroke-miterlimit="8" fill="#156082"/><text fill="#FFFFFF" font-family="Aptos,Aptos_MSFontService,sans-serif" font-weight="400" font-size="64" transform="matrix(1 0 0 1 1747.42 1189)">Shipment creation with or </text><text fill="#FFFFFF" font-family="Aptos,Aptos_MSFontService,sans-serif" font-weight="400" font-size="64" transform="matrix(1 0 0 1 1663.06 1266)">without </text><text fill="#FFFFFF" font-family="Aptos,Aptos_MSFontService,sans-serif" font-weight="400" font-size="64" transform="matrix(1 0 0 1 1886.5 1266)">shipment consolidation</text><path d="M0-3.4375 32.5637-3.4375 32.5637 0.933268 29.1262-2.50423 35.3357-2.50423 35.3357 4.37077 25.6887 4.37077 25.6887 0 29.1262 3.4375 0 3.4375ZM30.7524-12.8167 58.2524 0.933268 30.7524 14.6833Z" fill="#156082" transform="matrix(1.83697e-16 1 1 -1.83697e-16 2102.5 1041.5)"/><rect x="1426.5" y="1627.5" width="1355" height="274" stroke="#042433" stroke-width="6.875" stroke-miterlimit="8" fill="#156082"/><text fill="#FFFFFF" font-family="Aptos,Aptos_MSFontService,sans-serif" font-weight="400" font-size="64" transform="matrix(1 0 0 1 1576.83 1746)">Wave </text><text fill="#FFFFFF" font-family="Aptos,Aptos_MSFontService,sans-serif" font-weight="400" font-size="64" transform="matrix(1 0 0 1 1741.34 1746)">and warehouse work </text><text fill="#FFFFFF" font-family="Aptos,Aptos_MSFontService,sans-serif" font-weight="400" font-size="64" transform="matrix(1 0 0 1 2327.44 1746)">processing</text><text fill="#FFFFFF" font-family="Aptos,Aptos_MSFontService,sans-serif" font-weight="400" font-size="64" transform="matrix(1 0 0 1 1466.11 1823)">(Simple or advanced load building processing</text><text fill="#FFFFFF" font-family="Aptos,Aptos_MSFontService,sans-serif" font-weight="400" font-size="64" transform="matrix(1 0 0 1 2722.61 1823)">)</text><path d="M0-3.4375 32.3571-3.4375 32.3571 0.693635 28.9196-2.74386 34.9225-2.74386 34.9225 4.13113 25.4821 4.13113 25.4821 0 28.9196 3.4375 0 3.4375ZM30.3391-13.0564 57.8391 0.693635 30.3391 14.4436Z" fill="#156082" transform="matrix(1.83697e-16 1 1 -1.83697e-16 2103.5 1314.5)"/><rect x="1689.5" y="1948.5" width="836" height="195" stroke="#042433" stroke-width="6.875" stroke-miterlimit="8" fill="#156082"/><text fill="#FFFFFF" font-family="Aptos,Aptos_MSFontService,sans-serif" font-weight="400" font-size="64" transform="matrix(1 0 0 1 1759.56 2027)">Outbound load shipment </text><text fill="#FFFFFF" font-family="Aptos,Aptos_MSFontService,sans-serif" font-weight="400" font-size="64" transform="matrix(1 0 0 1 1928.57 2104)">confirmation</text><rect x="1525.5" y="2187.5" width="1165" height="273" stroke="#042433" stroke-width="6.875" stroke-miterlimit="8" fill="#156082"/><text fill="#FFFFFF" font-family="Aptos,Aptos_MSFontService,sans-serif" font-weight="400" font-size="64" transform="matrix(1 0 0 1 1757.45 2267)">Load</text><text fill="#FFFFFF" font-family="Aptos,Aptos_MSFontService,sans-serif" font-weight="400" font-size="64" transform="matrix(1 0 0 1 1908.86 2267)">packing slip </text><text fill="#FFFFFF" font-family="Aptos,Aptos_MSFontService,sans-serif" font-weight="400" font-size="64" transform="matrix(1 0 0 1 2252.04 2267)">posting</text><text fill="#FFFFFF" font-family="Aptos,Aptos_MSFontService,sans-serif" font-weight="400" font-size="64" transform="matrix(1 0 0 1 1643.51 2344)">(Manual or automatic via periodic </text><text fill="#FFFFFF" font-family="Aptos,Aptos_MSFontService,sans-serif" font-weight="400" font-size="64" transform="matrix(1 0 0 1 1774.37 2421)">background processing)</text><path d="M0.0763588-3.43665 24.2019-2.90061 24.0492 3.9727-0.0763588 3.43665ZM21.1818-13.6556 46.885 3.21627 17.9656 13.6556Z" fill="#156082" transform="matrix(1.83697e-16 1 1 -1.83697e-16 2104.5 1901.5)"/><path d="M0.00260729-3.4375 20.6209-3.42186 20.6157 3.45314-0.00260729 3.4375ZM16.0819-13.7499 43.5348 0.093832 15.9881 13.7499Z" fill="#156082" transform="matrix(1.83697e-16 1 1 -1.83697e-16 2107.5 2143.5)"/><path d="M2036.5 1441.5 2104.5 1371.5 2172.5 1441.5 2104.5 1511.5Z" stroke="#042433" stroke-width="6.875" stroke-miterlimit="8" fill="#156082" fill-rule="evenodd"/><path d="M0-3.4375 61.6249-3.4375 61.6249 0.0588255 58.1874-3.37867 93.4581-3.37867 93.4581 3.49633 54.7499 3.49633 54.7499 0 58.1874 3.4375 0 3.4375ZM88.8748-13.6912 116.375 0.0588255 88.8748 13.8088Z" fill="#156082" transform="matrix(1.83697e-16 1 1 -1.83697e-16 2104.5 1511.5)"/><path d="M2360.5 1365.5 2494.17 1365.5 2494.17 1365.5 2694.67 1365.5 3162.5 1365.5 3162.5 1403.17 3162.5 1403.17 3162.5 1459.67 3162.5 1591.5 2694.67 1591.5 2494.17 1591.5 2494.17 1591.5 2360.5 1591.5 2360.5 1459.67 2198.22 1437.18 2360.5 1403.17Z" stroke="#042433" stroke-width="6.875" stroke-miterlimit="8" fill="#156082" fill-rule="evenodd"/><text fill="#FFFFFF" font-family="Aptos,Aptos_MSFontService,sans-serif" font-weight="400" font-size="64" transform="matrix(1 0 0 1 2488.92 1460)">Externally managed </text><text fill="#FFFFFF" font-family="Aptos,Aptos_MSFontService,sans-serif" font-weight="400" font-size="64" transform="matrix(1 0 0 1 2592.94 1537)">warehouse?</text><text fill="#002060" font-family="Aptos,Aptos_MSFontService,sans-serif" font-weight="400" font-size="64" transform="matrix(1 0 0 1 2115.16 1561)">No</text><path d="M0-3.4375 369.634-3.4375 369.634 0.160597 366.196-3.2769 709.476-3.2769 709.476 3.5981 362.759 3.5981 362.759 0 366.196 3.4375 0 3.4375ZM704.893-13.5894 732.393 0.160597 704.893 13.9106Z" fill="#156082" transform="matrix(-1 1.22465e-16 1.22465e-16 1 2035.89 1441.5)"/><text fill="#002060" font-family="Aptos,Aptos_MSFontService,sans-serif" font-weight="400" font-size="64" transform="matrix(1 0 0 1 1900.77 1428)">Yes</text><rect x="471.5" y="1105.5" width="832" height="673" stroke="#80350E" stroke-width="6.875" stroke-miterlimit="8" fill="#E76321"/><text fill="#FFFFFF" font-family="Aptos,Aptos_MSFontService,sans-serif" font-weight="400" font-size="64" transform="matrix(1 0 0 1 538.663 1308)">W</text><text fill="#FFFFFF" font-family="Aptos,Aptos_MSFontService,sans-serif" font-weight="400" font-size="64" transform="matrix(1 0 0 1 593.296 1308)">arehouse </text><text fill="#FFFFFF" font-family="Aptos,Aptos_MSFontService,sans-serif" font-weight="400" font-size="64" transform="matrix(1 0 0 1 866.852 1308)">management </text><text fill="#FFFFFF" font-family="Aptos,Aptos_MSFontService,sans-serif" font-weight="400" font-size="64" transform="matrix(1 0 0 1 517.9 1385)">only mode </text><text fill="#FFFFFF" font-family="Aptos,Aptos_MSFontService,sans-serif" font-weight="400" font-size="64" transform="matrix(1 0 0 1 821.546 1385)">processing </text><text fill="#FFFFFF" font-family="Aptos,Aptos_MSFontService,sans-serif" font-weight="400" font-size="64" transform="matrix(1 0 0 1 1138.07 1385)">with </text><text fill="#FFFFFF" font-family="Aptos,Aptos_MSFontService,sans-serif" font-weight="400" font-size="64" transform="matrix(1 0 0 1 579.775 1462)">loads, shipments, and </text><text fill="#FFFFFF" font-family="Aptos,Aptos_MSFontService,sans-serif" font-weight="400" font-size="64" transform="matrix(1 0 0 1 517.923 1539)">outbound shipment orders </text><text fill="#FFFFFF" font-family="Aptos,Aptos_MSFontService,sans-serif" font-weight="400" font-size="64" transform="matrix(1 0 0 1 533.231 1616)">in dedicated legal entities</text><path d="M0-3.4375 207.779-3.4375 207.779 0.22664 204.342-3.21086 385.767-3.21086 385.767 3.66414 200.904 3.66414 200.904 0 204.342 3.4375 0 3.4375ZM381.183-13.5234 408.683 0.22664 381.183 13.9766Z" fill="#156082" transform="matrix(1.83697e-16 1 1 -1.83697e-16 887.5 1778.5)"/><rect x="469.5" y="2187.5" width="836" height="273" stroke="#042433" stroke-width="6.875" stroke-miterlimit="8" fill="#7F7F7F"/><text fill="#FFFFFF" font-family="Aptos,Aptos_MSFontService,sans-serif" font-weight="400" font-size="64" transform="matrix(1 0 0 1 614.377 2267)">External warehouse </text><text fill="#FFFFFF" font-family="Aptos,Aptos_MSFontService,sans-serif" font-weight="400" font-size="64" transform="matrix(1 0 0 1 504.537 2344)">shipment order update incl. </text><text fill="#FFFFFF" font-family="Aptos,Aptos_MSFontService,sans-serif" font-weight="400" font-size="64" transform="matrix(1 0 0 1 569.69 2421)">load creation if needed</text><path d="M0-3.4375 113.294-3.4375 113.294 0.000360892 109.856-3.43714 196.795-3.43714 196.795 3.43786 106.419 3.43786 106.419 0 109.856 3.4375 0 3.4375ZM192.212-13.7496 219.712 0.000360892 192.212 13.7504Z" fill="#156082" transform="matrix(1 0 0 -1 1305.5 2323.5)"/></g></svg>