<svg width="3941" height="1180" xmlns="http://www.w3.org/2000/svg" xmlns:xlink="http://www.w3.org/1999/xlink" xml:space="preserve" overflow="hidden"><g transform="translate(-194 -634)"><rect x="204.5" y="655.5" width="3920" height="1148" stroke="#002060" stroke-width="20.625" stroke-linejoin="round" stroke-miterlimit="10" fill="none"/><path d="M22.9167-2.29167 92.1647-2.29167 92.1647 1283.18 23.4147 1283.18 23.4147 1278.59 89.873 1278.59 87.5814 1280.88 87.5814 0 89.873 2.29167 22.9167 2.29167ZM27.5 22.9167 0 0 27.5-22.9167ZM27.998 1303.8 0.498031 1280.88 27.998 1257.97Z" transform="matrix(1.83697e-16 1 1 -1.83697e-16 2167.5 1533.5)"/><text font-family="Aptos,Aptos_MSFontService,sans-serif" font-weight="700" font-size="110" transform="matrix(1 0 0 1 1544.74 770)">Microsoft Dynamics 365</text><text font-family="Aptos,Aptos_MSFontService,sans-serif" font-weight="400" font-size="64" transform="matrix(1 0 0 1 2945.03 1696)">Inbound and Outbound shipment orders</text><rect x="2826.5" y="847.5" width="1244" height="687" stroke="#C00000" stroke-width="4.58333" stroke-miterlimit="8" fill="#EA813A"/><text fill="#FFFFFF" font-family="Aptos,Aptos_MSFontService,sans-serif" font-weight="400" font-size="92" transform="matrix(1 0 0 1 2990.65 985)">Distribution </text><text fill="#FFFFFF" font-family="Aptos,Aptos_MSFontService,sans-serif" font-weight="400" font-size="92" transform="matrix(1 0 0 1 3475.95 985)">legal entity </text><text fill="#FFFFFF" font-family="Aptos,Aptos_MSFontService,sans-serif" font-weight="400" font-size="92" transform="matrix(1 0 0 1 3310.47 1095)">(WOM)</text><rect x="2855.5" y="1161.5" width="548" height="346" stroke="#FFFFFF" stroke-width="4.58333" stroke-miterlimit="8" fill="#C16425"/><text fill="#FFFFFF" font-family="Aptos,Aptos_MSFontService,sans-serif" font-weight="400" font-size="87" transform="matrix(1 0 0 1 2915.48 1257)">Warehouse </text><text fill="#FFFFFF" font-family="Aptos,Aptos_MSFontService,sans-serif" font-weight="400" font-size="87" transform="matrix(1 0 0 1 2879.6 1362)">management</text><text fill="#FFFFFF" font-family="Aptos,Aptos_MSFontService,sans-serif" font-weight="400" font-size="87" transform="matrix(1 0 0 1 2932.56 1466)">only </text><text fill="#FFFFFF" font-family="Aptos,Aptos_MSFontService,sans-serif" font-weight="400" font-size="87" transform="matrix(1 0 0 1 3109.01 1466)">mode</text><path d="M889.28 1552.41 889.177 1624.18 886.885 1621.88 3448.47 1621.88 3446.17 1624.18 3446.17 1556.86 3450.76 1556.86 3450.76 1626.47 884.591 1626.47 884.696 1552.41ZM863.974 1556.48 887.5 1529.5 909.796 1557.51ZM3425.55 1561.44 3448.47 1533.94 3471.38 1561.44Z"/><path d="M3409.98 1157.28 3601.03 1157.28 3601.03 1313.06 3409.98 1313.06Z" fill="#FFB900" fill-rule="evenodd"/><path d="M3601.03 1157.28 3807.45 1157.28 3807.45 1313.06 3601.03 1313.06Z" fill="#FFB900" fill-rule="evenodd"/><path d="M3807.45 1157.28 4045.18 1157.28 4045.18 1313.06 3807.45 1313.06Z" fill="#FFB900" fill-rule="evenodd"/><path d="M3409.98 1313.06 3601.03 1313.06 3601.03 1407.64 3409.98 1407.64Z" fill="#FFE399" fill-rule="evenodd"/><path d="M3601.03 1313.06 3807.45 1313.06 3807.45 1407.64 3601.03 1407.64Z" fill="#FFE399" fill-rule="evenodd"/><path d="M3807.45 1313.06 4045.18 1313.06 4045.18 1407.64 3807.45 1407.64Z" fill="#FFE399" fill-rule="evenodd"/><path d="M3409.98 1407.64 3601.03 1407.64 3601.03 1502.22 3409.98 1502.22Z" fill="#FFF1CC" fill-rule="evenodd"/><path d="M3601.03 1407.64 3807.45 1407.64 3807.45 1502.22 3601.03 1502.22Z" fill="#FFF1CC" fill-rule="evenodd"/><path d="M3807.45 1407.64 4045.18 1407.64 4045.18 1502.22 3807.45 1502.22Z" fill="#FFF1CC" fill-rule="evenodd"/><path d="M3601.03 1154.99 3601.03 1504.51" stroke="#FFFFFF" stroke-width="4.58333" stroke-linejoin="round" stroke-miterlimit="10" fill="none" fill-rule="evenodd"/><path d="M3807.45 1154.99 3807.45 1504.51" stroke="#FFFFFF" stroke-width="4.58333" stroke-linejoin="round" stroke-miterlimit="10" fill="none" fill-rule="evenodd"/><path d="M3407.69 1313.06 4047.47 1313.06" stroke="#FFFFFF" stroke-width="13.75" stroke-linejoin="round" stroke-miterlimit="10" fill="none" fill-rule="evenodd"/><path d="M3407.69 1407.64 4047.47 1407.64" stroke="#FFFFFF" stroke-width="4.58333" stroke-linejoin="round" stroke-miterlimit="10" fill="none" fill-rule="evenodd"/><path d="M3409.98 1154.99 3409.98 1504.51" stroke="#FFFFFF" stroke-width="4.58333" stroke-linejoin="round" stroke-miterlimit="10" fill="none" fill-rule="evenodd"/><path d="M4045.18 1154.99 4045.18 1504.51" stroke="#FFFFFF" stroke-width="4.58333" stroke-linejoin="round" stroke-miterlimit="10" fill="none" fill-rule="evenodd"/><path d="M3407.69 1157.28 4047.47 1157.28" stroke="#FFFFFF" stroke-width="4.58333" stroke-linejoin="round" stroke-miterlimit="10" fill="none" fill-rule="evenodd"/><path d="M3407.69 1502.22 4047.47 1502.22" stroke="#FFFFFF" stroke-width="4.58333" stroke-linejoin="round" stroke-miterlimit="10" fill="none" fill-rule="evenodd"/><g><text fill="#FFFFFF" font-family="Segoe UI,Segoe UI_MSFontService,sans-serif" font-weight="700" font-size="50" transform="matrix(1 0 0 1 3820.44 1219)">On</text></g><text fill="#FFFFFF" font-family="Segoe UI,Segoe UI_MSFontService,sans-serif" font-weight="700" font-size="50" transform="matrix(1 0 0 1 3889.19 1219)">-</text><g><text fill="#FFFFFF" font-family="Segoe UI,Segoe UI_MSFontService,sans-serif" font-weight="700" font-size="50" transform="matrix(1 0 0 1 3909.81 1219)">hand </text></g><g><text fill="#FFFFFF" font-family="Segoe UI,Segoe UI_MSFontService,sans-serif" font-weight="700" font-size="50" transform="matrix(1 0 0 1 3820.44 1280)">quantity</text></g><g><text fill="#FFFFFF" font-family="Segoe UI,Segoe UI_MSFontService,sans-serif" font-weight="700" font-size="50" transform="matrix(1 0 0 1 3614.02 1219)">Owner</text></g><g><text fill="#FFFFFF" font-family="Segoe UI,Segoe UI_MSFontService,sans-serif" font-weight="700" font-size="50" transform="matrix(1 0 0 1 3422.97 1219)">Item</text></g><g><text font-family="Segoe UI,Segoe UI_MSFontService,sans-serif" font-weight="400" font-size="50" transform="matrix(1 0 0 1 3820.44 1375)">100</text></g><g><text font-family="Segoe UI,Segoe UI_MSFontService,sans-serif" font-weight="400" font-size="50" transform="matrix(1 0 0 1 3614.02 1375)">LE1</text></g><g><text font-family="Segoe UI,Segoe UI_MSFontService,sans-serif" font-weight="400" font-size="50" transform="matrix(1 0 0 1 3422.97 1375)">W0007</text></g><g><text font-family="Segoe UI,Segoe UI_MSFontService,sans-serif" font-weight="400" font-size="50" transform="matrix(1 0 0 1 3820.44 1470)">130</text></g><g><text font-family="Segoe UI,Segoe UI_MSFontService,sans-serif" font-weight="400" font-size="50" transform="matrix(1 0 0 1 3614.02 1470)">LE2</text></g><g><text font-family="Segoe UI,Segoe UI_MSFontService,sans-serif" font-weight="400" font-size="50" transform="matrix(1 0 0 1 3422.97 1470)">W0007</text></g><text font-family="Aptos,Aptos_MSFontService,sans-serif" font-weight="400" font-size="64" transform="matrix(1 0 0 1 1195.01 1689)">Purchase and Sales orders</text><rect x="2855" y="1159" width="1190" height="347" stroke="#FFFFFF" stroke-width="8.02083" stroke-linejoin="round" stroke-miterlimit="10" fill="none"/><rect x="265" y="847" width="1244" height="686" fill="#156082"/><text fill="#FFFFFF" font-family="Aptos,Aptos_MSFontService,sans-serif" font-weight="400" font-size="92" transform="matrix(1 0 0 1 520.226 985)">Sales legal entity 1</text><text fill="#FFFFFF" font-family="Aptos,Aptos_MSFontService,sans-serif" font-weight="700" font-size="92" transform="matrix(1 0 0 1 785.739 1095)">(LE1)</text><rect x="294" y="1161" width="553" height="345" fill="#0E6D87"/><text fill="#FFFFFF" font-family="Aptos,Aptos_MSFontService,sans-serif" font-weight="400" font-size="92" transform="matrix(1 0 0 1 437.588 1254)">PO/SO </text><text fill="#FFFFFF" font-family="Aptos,Aptos_MSFontService,sans-serif" font-weight="400" font-size="92" transform="matrix(1 0 0 1 388.913 1364)">including </text><text fill="#FFFFFF" font-family="Aptos,Aptos_MSFontService,sans-serif" font-weight="400" font-size="92" transform="matrix(1 0 0 1 377.729 1474)">financials</text><path d="M849.016 1161.24 1040.07 1161.24 1040.07 1317.02 849.016 1317.02Z" fill="#0078D4" fill-rule="evenodd"/><path d="M1040.07 1161.24 1246.48 1161.24 1246.48 1317.02 1040.07 1317.02Z" fill="#0078D4" fill-rule="evenodd"/><path d="M1246.48 1161.24 1484.21 1161.24 1484.21 1317.02 1246.48 1317.02Z" fill="#0078D4" fill-rule="evenodd"/><path d="M849.016 1317.02 1040.07 1317.02 1040.07 1411.6 849.016 1411.6Z" fill="#CBD6EF" fill-rule="evenodd"/><path d="M1040.07 1317.02 1246.48 1317.02 1246.48 1411.6 1040.07 1411.6Z" fill="#CBD6EF" fill-rule="evenodd"/><path d="M1246.48 1317.02 1484.21 1317.02 1484.21 1411.6 1246.48 1411.6Z" fill="#CBD6EF" fill-rule="evenodd"/><path d="M849.016 1411.6 1040.07 1411.6 1040.07 1506.18 849.016 1506.18Z" fill="#E7ECF7" fill-rule="evenodd"/><path d="M1040.07 1411.6 1246.48 1411.6 1246.48 1506.18 1040.07 1506.18Z" fill="#E7ECF7" fill-rule="evenodd"/><path d="M1246.48 1411.6 1484.21 1411.6 1484.21 1506.18 1246.48 1506.18Z" fill="#E7ECF7" fill-rule="evenodd"/><path d="M1040.07 1158.95 1040.07 1508.47" stroke="#FFFFFF" stroke-width="4.58333" stroke-linejoin="round" stroke-miterlimit="10" fill="none" fill-rule="evenodd"/><path d="M1246.48 1158.95 1246.48 1508.47" stroke="#FFFFFF" stroke-width="4.58333" stroke-linejoin="round" stroke-miterlimit="10" fill="none" fill-rule="evenodd"/><path d="M846.724 1317.02 1486.5 1317.02" stroke="#FFFFFF" stroke-width="13.75" stroke-linejoin="round" stroke-miterlimit="10" fill="none" fill-rule="evenodd"/><path d="M846.724 1411.6 1486.5 1411.6" stroke="#FFFFFF" stroke-width="4.58333" stroke-linejoin="round" stroke-miterlimit="10" fill="none" fill-rule="evenodd"/><path d="M849.016 1158.95 849.016 1508.47" stroke="#FFFFFF" stroke-width="4.58333" stroke-linejoin="round" stroke-miterlimit="10" fill="none" fill-rule="evenodd"/><path d="M1484.21 1158.95 1484.21 1508.47" stroke="#FFFFFF" stroke-width="4.58333" stroke-linejoin="round" stroke-miterlimit="10" fill="none" fill-rule="evenodd"/><path d="M846.724 1161.24 1486.5 1161.24" stroke="#FFFFFF" stroke-width="4.58333" stroke-linejoin="round" stroke-miterlimit="10" fill="none" fill-rule="evenodd"/><path d="M846.724 1506.18 1486.5 1506.18" stroke="#FFFFFF" stroke-width="4.58333" stroke-linejoin="round" stroke-miterlimit="10" fill="none" fill-rule="evenodd"/><g><text fill="#FFFFFF" font-family="Segoe UI,Segoe UI_MSFontService,sans-serif" font-weight="700" font-size="50" transform="matrix(1 0 0 1 1259.47 1223)">On</text></g><text fill="#FFFFFF" font-family="Segoe UI,Segoe UI_MSFontService,sans-serif" font-weight="700" font-size="50" transform="matrix(1 0 0 1 1328.22 1223)">-</text><g><text fill="#FFFFFF" font-family="Segoe UI,Segoe UI_MSFontService,sans-serif" font-weight="700" font-size="50" transform="matrix(1 0 0 1 1348.85 1223)">hand </text></g><g><text fill="#FFFFFF" font-family="Segoe UI,Segoe UI_MSFontService,sans-serif" font-weight="700" font-size="50" transform="matrix(1 0 0 1 1259.47 1284)">quantity</text></g><g><text fill="#FFFFFF" font-family="Segoe UI,Segoe UI_MSFontService,sans-serif" font-weight="700" font-size="50" transform="matrix(1 0 0 1 1053.06 1223)">Owner</text></g><g><text fill="#FFFFFF" font-family="Segoe UI,Segoe UI_MSFontService,sans-serif" font-weight="700" font-size="50" transform="matrix(1 0 0 1 862.008 1223)">Item</text></g><g><text font-family="Segoe UI,Segoe UI_MSFontService,sans-serif" font-weight="400" font-size="50" transform="matrix(1 0 0 1 1259.47 1379)">100</text></g><g><text font-family="Segoe UI,Segoe UI_MSFontService,sans-serif" font-weight="400" font-size="50" transform="matrix(1 0 0 1 862.008 1379)">W0007</text></g><rect x="294" y="1158" width="1190" height="347" stroke="#FFFFFF" stroke-width="8.02083" stroke-linejoin="round" stroke-miterlimit="10" fill="none"/><rect x="1545" y="847" width="1244" height="686" fill="#156082"/><text fill="#FFFFFF" font-family="Aptos,Aptos_MSFontService,sans-serif" font-weight="400" font-size="92" transform="matrix(1 0 0 1 1800.31 985)">Sales legal entity 2</text><text fill="#FFFFFF" font-family="Aptos,Aptos_MSFontService,sans-serif" font-weight="700" font-size="92" transform="matrix(1 0 0 1 2065.82 1095)">(LE2)</text><rect x="1574" y="1161" width="553" height="345" fill="#0E6D87"/><text fill="#FFFFFF" font-family="Aptos,Aptos_MSFontService,sans-serif" font-weight="400" font-size="87" transform="matrix(1 0 0 1 1724.18 1257)">PO/</text><text fill="#FFFFFF" font-family="Aptos,Aptos_MSFontService,sans-serif" font-weight="400" font-size="87" transform="matrix(1 0 0 1 1864.75 1257)">SO</text><text fill="#FFFFFF" font-family="Aptos,Aptos_MSFontService,sans-serif" font-weight="400" font-size="87" transform="matrix(1 0 0 1 1677.86 1362)">including </text><text fill="#FFFFFF" font-family="Aptos,Aptos_MSFontService,sans-serif" font-weight="400" font-size="87" transform="matrix(1 0 0 1 1666.98 1466)">financials</text><path d="M2129.1 1161.17 2320.15 1161.17 2320.15 1316.95 2129.1 1316.95Z" fill="#0078D4" fill-rule="evenodd"/><path d="M2320.15 1161.17 2526.56 1161.17 2526.56 1316.95 2320.15 1316.95Z" fill="#0078D4" fill-rule="evenodd"/><path d="M2526.56 1161.17 2764.29 1161.17 2764.29 1316.95 2526.56 1316.95Z" fill="#0078D4" fill-rule="evenodd"/><path d="M2129.1 1316.95 2320.15 1316.95 2320.15 1411.53 2129.1 1411.53Z" fill="#CBD6EF" fill-rule="evenodd"/><path d="M2320.15 1316.95 2526.56 1316.95 2526.56 1411.53 2320.15 1411.53Z" fill="#CBD6EF" fill-rule="evenodd"/><path d="M2526.56 1316.95 2764.29 1316.95 2764.29 1411.53 2526.56 1411.53Z" fill="#CBD6EF" fill-rule="evenodd"/><path d="M2129.1 1411.53 2320.15 1411.53 2320.15 1506.11 2129.1 1506.11Z" fill="#E7ECF7" fill-rule="evenodd"/><path d="M2320.15 1411.53 2526.56 1411.53 2526.56 1506.11 2320.15 1506.11Z" fill="#E7ECF7" fill-rule="evenodd"/><path d="M2526.56 1411.53 2764.29 1411.53 2764.29 1506.11 2526.56 1506.11Z" fill="#E7ECF7" fill-rule="evenodd"/><path d="M2320.15 1158.88 2320.15 1508.4" stroke="#FFFFFF" stroke-width="4.58333" stroke-linejoin="round" stroke-miterlimit="10" fill="none" fill-rule="evenodd"/><path d="M2526.56 1158.88 2526.56 1508.4" stroke="#FFFFFF" stroke-width="4.58333" stroke-linejoin="round" stroke-miterlimit="10" fill="none" fill-rule="evenodd"/><path d="M2126.81 1316.95 2766.59 1316.95" stroke="#FFFFFF" stroke-width="13.75" stroke-linejoin="round" stroke-miterlimit="10" fill="none" fill-rule="evenodd"/><path d="M2126.81 1411.53 2766.59 1411.53" stroke="#FFFFFF" stroke-width="4.58333" stroke-linejoin="round" stroke-miterlimit="10" fill="none" fill-rule="evenodd"/><path d="M2129.1 1158.88 2129.1 1508.4" stroke="#FFFFFF" stroke-width="4.58333" stroke-linejoin="round" stroke-miterlimit="10" fill="none" fill-rule="evenodd"/><path d="M2764.29 1158.88 2764.29 1508.4" stroke="#FFFFFF" stroke-width="4.58333" stroke-linejoin="round" stroke-miterlimit="10" fill="none" fill-rule="evenodd"/><path d="M2126.81 1161.17 2766.59 1161.17" stroke="#FFFFFF" stroke-width="4.58333" stroke-linejoin="round" stroke-miterlimit="10" fill="none" fill-rule="evenodd"/><path d="M2126.81 1506.11 2766.59 1506.11" stroke="#FFFFFF" stroke-width="4.58333" stroke-linejoin="round" stroke-miterlimit="10" fill="none" fill-rule="evenodd"/><g><text fill="#FFFFFF" font-family="Segoe UI,Segoe UI_MSFontService,sans-serif" font-weight="700" font-size="50" transform="matrix(1 0 0 1 2539.55 1223)">On</text></g><text fill="#FFFFFF" font-family="Segoe UI,Segoe UI_MSFontService,sans-serif" font-weight="700" font-size="50" transform="matrix(1 0 0 1 2608.3 1223)">-</text><g><text fill="#FFFFFF" font-family="Segoe UI,Segoe UI_MSFontService,sans-serif" font-weight="700" font-size="50" transform="matrix(1 0 0 1 2628.93 1223)">hand </text></g><g><text fill="#FFFFFF" font-family="Segoe UI,Segoe UI_MSFontService,sans-serif" font-weight="700" font-size="50" transform="matrix(1 0 0 1 2539.55 1284)">quantity</text></g><g><text fill="#FFFFFF" font-family="Segoe UI,Segoe UI_MSFontService,sans-serif" font-weight="700" font-size="50" transform="matrix(1 0 0 1 2333.14 1223)">Owner</text></g><g><text fill="#FFFFFF" font-family="Segoe UI,Segoe UI_MSFontService,sans-serif" font-weight="700" font-size="50" transform="matrix(1 0 0 1 2142.09 1223)">Item</text></g><g><text font-family="Segoe UI,Segoe UI_MSFontService,sans-serif" font-weight="400" font-size="50" transform="matrix(1 0 0 1 2539.55 1474)">130</text></g><g><text font-family="Segoe UI,Segoe UI_MSFontService,sans-serif" font-weight="400" font-size="50" transform="matrix(1 0 0 1 2142.09 1474)">W0007</text></g><rect x="1574" y="1158" width="1190" height="347" stroke="#FFFFFF" stroke-width="8.02083" stroke-linejoin="round" stroke-miterlimit="10" fill="none"/></g></svg>