<svg width="3941" height="1180" xmlns="http://www.w3.org/2000/svg" xmlns:xlink="http://www.w3.org/1999/xlink" xml:space="preserve" overflow="hidden"><g transform="translate(-70 -634)"><rect x="80.4999" y="655.5" width="3920" height="1148" stroke="#156082" stroke-width="20.625" stroke-linejoin="round" stroke-miterlimit="10" fill="none"/><path d="M22.9167-2.29167 92.1647-2.29167 92.1647 1283.18 23.4147 1283.18 23.4147 1278.59 89.873 1278.59 87.5814 1280.88 87.5814 0 89.873 2.29167 22.9167 2.29167ZM27.5 22.9167 0 0 27.5-22.9167ZM27.998 1303.8 0.498031 1280.88 27.998 1257.97Z" transform="matrix(1.83697e-16 1 1 -1.83697e-16 2043.5 1533.5)"/><text font-family="Aptos,Aptos_MSFontService,sans-serif" font-weight="700" font-size="110" transform="matrix(1 0 0 1 1420.99 770)">Microsoft </text><text font-family="Aptos,Aptos_MSFontService,sans-serif" font-weight="700" font-size="110" transform="matrix(1 0 0 1 1921.97 770)">Dynamics 365</text><text font-family="Aptos,Aptos_MSFontService,sans-serif" font-weight="400" font-size="64" transform="matrix(1 0 0 1 2821.28 1696)">Inbound and Outbound shipment orders</text><rect x="2702" y="847" width="1244" height="687" fill="#156082"/><text fill="#FFFFFF" font-family="Aptos,Aptos_MSFontService,sans-serif" font-weight="400" font-size="92" transform="matrix(1 0 0 1 2866.9 985)">Distribution legal entity </text><text fill="#FFFFFF" font-family="Aptos,Aptos_MSFontService,sans-serif" font-weight="700" font-size="92" transform="matrix(1 0 0 1 3183.33 1095)">(WOM)</text><rect x="2732" y="1161" width="553" height="346" fill="#0E6D87"/><text fill="#FFFFFF" font-family="Aptos,Aptos_MSFontService,sans-serif" font-weight="400" font-size="92" transform="matrix(1 0 0 1 2783.38 1254)">Warehouse </text><text fill="#FFFFFF" font-family="Aptos,Aptos_MSFontService,sans-serif" font-weight="400" font-size="92" transform="matrix(1 0 0 1 2745.95 1364)">management </text><text fill="#FFFFFF" font-family="Aptos,Aptos_MSFontService,sans-serif" font-weight="400" font-size="92" transform="matrix(1 0 0 1 2801.48 1474)">only mode</text><path d="M765.279 1552.41 765.177 1624.18 762.885 1621.88 3324.47 1621.88 3322.17 1624.18 3322.17 1556.86 3326.76 1556.86 3326.76 1626.47 760.59 1626.47 760.696 1552.41ZM739.974 1556.48 763.5 1529.5 785.796 1557.51ZM3301.55 1561.44 3324.47 1533.94 3347.38 1561.44Z"/><path d="M3286.23 1161.67 3477.28 1161.67 3477.28 1317.45 3286.23 1317.45Z" fill="#0078D4" fill-rule="evenodd"/><path d="M3477.28 1161.67 3683.7 1161.67 3683.7 1317.45 3477.28 1317.45Z" fill="#0078D4" fill-rule="evenodd"/><path d="M3683.7 1161.67 3921.43 1161.67 3921.43 1317.45 3683.7 1317.45Z" fill="#0078D4" fill-rule="evenodd"/><path d="M3286.23 1317.45 3477.28 1317.45 3477.28 1412.03 3286.23 1412.03Z" fill="#CBD6EF" fill-rule="evenodd"/><path d="M3477.28 1317.45 3683.7 1317.45 3683.7 1412.03 3477.28 1412.03Z" fill="#CBD6EF" fill-rule="evenodd"/><path d="M3683.7 1317.45 3921.43 1317.45 3921.43 1412.03 3683.7 1412.03Z" fill="#CBD6EF" fill-rule="evenodd"/><path d="M3286.23 1412.03 3477.28 1412.03 3477.28 1506.61 3286.23 1506.61Z" fill="#E7ECF7" fill-rule="evenodd"/><path d="M3477.28 1412.03 3683.7 1412.03 3683.7 1506.61 3477.28 1506.61Z" fill="#E7ECF7" fill-rule="evenodd"/><path d="M3683.7 1412.03 3921.43 1412.03 3921.43 1506.61 3683.7 1506.61Z" fill="#E7ECF7" fill-rule="evenodd"/><path d="M3477.28 1159.37 3477.28 1508.9" stroke="#FFFFFF" stroke-width="4.58333" stroke-linejoin="round" stroke-miterlimit="10" fill="none" fill-rule="evenodd"/><path d="M3683.7 1159.37 3683.7 1508.9" stroke="#FFFFFF" stroke-width="4.58333" stroke-linejoin="round" stroke-miterlimit="10" fill="none" fill-rule="evenodd"/><path d="M3283.94 1317.45 3923.72 1317.45" stroke="#FFFFFF" stroke-width="13.75" stroke-linejoin="round" stroke-miterlimit="10" fill="none" fill-rule="evenodd"/><path d="M3283.94 1412.03 3923.72 1412.03" stroke="#FFFFFF" stroke-width="4.58333" stroke-linejoin="round" stroke-miterlimit="10" fill="none" fill-rule="evenodd"/><path d="M3286.23 1159.37 3286.23 1508.9" stroke="#FFFFFF" stroke-width="4.58333" stroke-linejoin="round" stroke-miterlimit="10" fill="none" fill-rule="evenodd"/><path d="M3921.43 1159.37 3921.43 1508.9" stroke="#FFFFFF" stroke-width="4.58333" stroke-linejoin="round" stroke-miterlimit="10" fill="none" fill-rule="evenodd"/><path d="M3283.94 1161.67 3923.72 1161.67" stroke="#FFFFFF" stroke-width="4.58333" stroke-linejoin="round" stroke-miterlimit="10" fill="none" fill-rule="evenodd"/><path d="M3283.94 1506.61 3923.72 1506.61" stroke="#FFFFFF" stroke-width="4.58333" stroke-linejoin="round" stroke-miterlimit="10" fill="none" fill-rule="evenodd"/><g><text fill="#FFFFFF" font-family="Segoe UI,Segoe UI_MSFontService,sans-serif" font-weight="700" font-size="50" transform="matrix(1 0 0 1 3696.69 1224)">On</text></g><text fill="#FFFFFF" font-family="Segoe UI,Segoe UI_MSFontService,sans-serif" font-weight="700" font-size="50" transform="matrix(1 0 0 1 3765.44 1224)">-</text><g><text fill="#FFFFFF" font-family="Segoe UI,Segoe UI_MSFontService,sans-serif" font-weight="700" font-size="50" transform="matrix(1 0 0 1 3786.06 1224)">hand </text></g><g><text fill="#FFFFFF" font-family="Segoe UI,Segoe UI_MSFontService,sans-serif" font-weight="700" font-size="50" transform="matrix(1 0 0 1 3696.69 1285)">quantity</text></g><g><text fill="#FFFFFF" font-family="Segoe UI,Segoe UI_MSFontService,sans-serif" font-weight="700" font-size="50" transform="matrix(1 0 0 1 3490.27 1224)">Owner</text></g><g><text fill="#FFFFFF" font-family="Segoe UI,Segoe UI_MSFontService,sans-serif" font-weight="700" font-size="50" transform="matrix(1 0 0 1 3299.22 1224)">Item</text></g><g><text font-family="Segoe UI,Segoe UI_MSFontService,sans-serif" font-weight="400" font-size="50" transform="matrix(1 0 0 1 3696.69 1379)">100</text></g><g><text font-family="Segoe UI,Segoe UI_MSFontService,sans-serif" font-weight="400" font-size="50" transform="matrix(1 0 0 1 3490.27 1379)">L</text></g><text font-family="Segoe UI,Segoe UI_MSFontService,sans-serif" font-weight="400" font-size="50" transform="matrix(1 0 0 1 3513.76 1379)">E1</text><g><text font-family="Segoe UI,Segoe UI_MSFontService,sans-serif" font-weight="400" font-size="50" transform="matrix(1 0 0 1 3299.22 1379)">A0001</text></g><g><text font-family="Segoe UI,Segoe UI_MSFontService,sans-serif" font-weight="400" font-size="50" transform="matrix(1 0 0 1 3696.69 1474)">130</text></g><g><text font-family="Segoe UI,Segoe UI_MSFontService,sans-serif" font-weight="400" font-size="50" transform="matrix(1 0 0 1 3490.27 1474)">L</text></g><text font-family="Segoe UI,Segoe UI_MSFontService,sans-serif" font-weight="400" font-size="50" transform="matrix(1 0 0 1 3513.76 1474)">E2</text><g><text font-family="Segoe UI,Segoe UI_MSFontService,sans-serif" font-weight="400" font-size="50" transform="matrix(1 0 0 1 3299.22 1474)">A00</text></g><text font-family="Segoe UI,Segoe UI_MSFontService,sans-serif" font-weight="400" font-size="50" transform="matrix(1 0 0 1 3385.73 1474)">0</text><text font-family="Segoe UI,Segoe UI_MSFontService,sans-serif" font-weight="400" font-size="50" transform="matrix(1 0 0 1 3412.66 1474)">1</text><text font-family="Aptos,Aptos_MSFontService,sans-serif" font-weight="400" font-size="64" transform="matrix(1 0 0 1 1071.26 1689)">Purchase</text><text font-family="Aptos,Aptos_MSFontService,sans-serif" font-weight="400" font-size="64" transform="matrix(1 0 0 1 1344.59 1689)">and</text><text font-family="Aptos,Aptos_MSFontService,sans-serif" font-weight="400" font-size="64" transform="matrix(1 0 0 1 1463.76 1689)">Sales</text><text font-family="Aptos,Aptos_MSFontService,sans-serif" font-weight="400" font-size="64" transform="matrix(1 0 0 1 1628.76 1689)">orders</text><rect x="2732" y="1159" width="1189" height="347" stroke="#FFFFFF" stroke-width="8.02083" stroke-linejoin="round" stroke-miterlimit="10" fill="none"/><rect x="141" y="847" width="1244" height="686" fill="#156082"/><text fill="#FFFFFF" font-family="Aptos,Aptos_MSFontService,sans-serif" font-weight="400" font-size="92" transform="matrix(1 0 0 1 396.475 985)">Sales legal entity 1</text><text fill="#FFFFFF" font-family="Aptos,Aptos_MSFontService,sans-serif" font-weight="700" font-size="92" transform="matrix(1 0 0 1 661.988 1095)">(</text><text fill="#FFFFFF" font-family="Aptos,Aptos_MSFontService,sans-serif" font-weight="700" font-size="92" transform="matrix(1 0 0 1 688.915 1095)">LE1</text><text fill="#FFFFFF" font-family="Aptos,Aptos_MSFontService,sans-serif" font-weight="700" font-size="92" transform="matrix(1 0 0 1 837.3 1095)">)</text><rect x="171" y="1161" width="553" height="345" fill="#0E6D87"/><text fill="#FFFFFF" font-family="Aptos,Aptos_MSFontService,sans-serif" font-weight="400" font-size="92" transform="matrix(1 0 0 1 313.837 1254)">PO/SO </text><text fill="#FFFFFF" font-family="Aptos,Aptos_MSFontService,sans-serif" font-weight="400" font-size="92" transform="matrix(1 0 0 1 265.162 1364)">including </text><text fill="#FFFFFF" font-family="Aptos,Aptos_MSFontService,sans-serif" font-weight="400" font-size="92" transform="matrix(1 0 0 1 253.978 1474)">financials</text><path d="M725.265 1161.24 916.315 1161.24 916.315 1317.02 725.265 1317.02Z" fill="#0078D4" fill-rule="evenodd"/><path d="M916.315 1161.24 1122.73 1161.24 1122.73 1317.02 916.315 1317.02Z" fill="#0078D4" fill-rule="evenodd"/><path d="M1122.73 1161.24 1360.46 1161.24 1360.46 1317.02 1122.73 1317.02Z" fill="#0078D4" fill-rule="evenodd"/><path d="M725.265 1317.02 916.315 1317.02 916.315 1411.6 725.265 1411.6Z" fill="#CBD6EF" fill-rule="evenodd"/><path d="M916.315 1317.02 1122.73 1317.02 1122.73 1411.6 916.315 1411.6Z" fill="#CBD6EF" fill-rule="evenodd"/><path d="M1122.73 1317.02 1360.46 1317.02 1360.46 1411.6 1122.73 1411.6Z" fill="#CBD6EF" fill-rule="evenodd"/><path d="M725.265 1411.6 916.315 1411.6 916.315 1506.18 725.265 1506.18Z" fill="#E7ECF7" fill-rule="evenodd"/><path d="M916.315 1411.6 1122.73 1411.6 1122.73 1506.18 916.315 1506.18Z" fill="#E7ECF7" fill-rule="evenodd"/><path d="M1122.73 1411.6 1360.46 1411.6 1360.46 1506.18 1122.73 1506.18Z" fill="#E7ECF7" fill-rule="evenodd"/><path d="M916.315 1158.95 916.315 1508.47" stroke="#FFFFFF" stroke-width="4.58333" stroke-linejoin="round" stroke-miterlimit="10" fill="none" fill-rule="evenodd"/><path d="M1122.73 1158.95 1122.73 1508.47" stroke="#FFFFFF" stroke-width="4.58333" stroke-linejoin="round" stroke-miterlimit="10" fill="none" fill-rule="evenodd"/><path d="M722.973 1317.02 1362.75 1317.02" stroke="#FFFFFF" stroke-width="13.75" stroke-linejoin="round" stroke-miterlimit="10" fill="none" fill-rule="evenodd"/><path d="M722.973 1411.6 1362.75 1411.6" stroke="#FFFFFF" stroke-width="4.58333" stroke-linejoin="round" stroke-miterlimit="10" fill="none" fill-rule="evenodd"/><path d="M725.265 1158.95 725.265 1508.47" stroke="#FFFFFF" stroke-width="4.58333" stroke-linejoin="round" stroke-miterlimit="10" fill="none" fill-rule="evenodd"/><path d="M1360.46 1158.95 1360.46 1508.47" stroke="#FFFFFF" stroke-width="4.58333" stroke-linejoin="round" stroke-miterlimit="10" fill="none" fill-rule="evenodd"/><path d="M722.973 1161.24 1362.75 1161.24" stroke="#FFFFFF" stroke-width="4.58333" stroke-linejoin="round" stroke-miterlimit="10" fill="none" fill-rule="evenodd"/><path d="M722.973 1506.18 1362.75 1506.18" stroke="#FFFFFF" stroke-width="4.58333" stroke-linejoin="round" stroke-miterlimit="10" fill="none" fill-rule="evenodd"/><g><text fill="#FFFFFF" font-family="Segoe UI,Segoe UI_MSFontService,sans-serif" font-weight="700" font-size="50" transform="matrix(1 0 0 1 1135.72 1223)">On</text></g><text fill="#FFFFFF" font-family="Segoe UI,Segoe UI_MSFontService,sans-serif" font-weight="700" font-size="50" transform="matrix(1 0 0 1 1204.47 1223)">-</text><g><text fill="#FFFFFF" font-family="Segoe UI,Segoe UI_MSFontService,sans-serif" font-weight="700" font-size="50" transform="matrix(1 0 0 1 1225.1 1223)">hand </text></g><g><text fill="#FFFFFF" font-family="Segoe UI,Segoe UI_MSFontService,sans-serif" font-weight="700" font-size="50" transform="matrix(1 0 0 1 1135.72 1284)">quantity</text></g><g><text fill="#FFFFFF" font-family="Segoe UI,Segoe UI_MSFontService,sans-serif" font-weight="700" font-size="50" transform="matrix(1 0 0 1 929.307 1223)">Owner</text></g><g><text fill="#FFFFFF" font-family="Segoe UI,Segoe UI_MSFontService,sans-serif" font-weight="700" font-size="50" transform="matrix(1 0 0 1 738.257 1223)">Item</text></g><g><text font-family="Segoe UI,Segoe UI_MSFontService,sans-serif" font-weight="400" font-size="50" transform="matrix(1 0 0 1 1135.72 1379)">100</text></g><g><text font-family="Segoe UI,Segoe UI_MSFontService,sans-serif" font-weight="400" font-size="50" transform="matrix(1 0 0 1 738.257 1379)">A0001</text></g><rect x="171" y="1158" width="1189" height="347" stroke="#FFFFFF" stroke-width="8.02083" stroke-linejoin="round" stroke-miterlimit="10" fill="none"/><rect x="1421" y="847" width="1244" height="686" fill="#156082"/><text fill="#FFFFFF" font-family="Aptos,Aptos_MSFontService,sans-serif" font-weight="400" font-size="92" transform="matrix(1 0 0 1 1676.56 985)">Sales legal entity 2</text><text fill="#FFFFFF" font-family="Aptos,Aptos_MSFontService,sans-serif" font-weight="700" font-size="92" transform="matrix(1 0 0 1 1942.07 1095)">(</text><text fill="#FFFFFF" font-family="Aptos,Aptos_MSFontService,sans-serif" font-weight="700" font-size="92" transform="matrix(1 0 0 1 1969 1095)">LE2</text><text fill="#FFFFFF" font-family="Aptos,Aptos_MSFontService,sans-serif" font-weight="700" font-size="92" transform="matrix(1 0 0 1 2117.38 1095)">)</text><rect x="1451" y="1161" width="553" height="345" fill="#0E6D87"/><text fill="#FFFFFF" font-family="Aptos,Aptos_MSFontService,sans-serif" font-weight="400" font-size="92" transform="matrix(1 0 0 1 1593.92 1254)">PO/</text><text fill="#FFFFFF" font-family="Aptos,Aptos_MSFontService,sans-serif" font-weight="400" font-size="92" transform="matrix(1 0 0 1 1741.2 1254)">SO</text><text fill="#FFFFFF" font-family="Aptos,Aptos_MSFontService,sans-serif" font-weight="400" font-size="92" transform="matrix(1 0 0 1 1545.24 1364)">including </text><text fill="#FFFFFF" font-family="Aptos,Aptos_MSFontService,sans-serif" font-weight="400" font-size="92" transform="matrix(1 0 0 1 1534.06 1474)">financials</text><path d="M2005.35 1161.17 2196.4 1161.17 2196.4 1316.95 2005.35 1316.95Z" fill="#0078D4" fill-rule="evenodd"/><path d="M2196.4 1161.17 2402.81 1161.17 2402.81 1316.95 2196.4 1316.95Z" fill="#0078D4" fill-rule="evenodd"/><path d="M2402.81 1161.17 2640.54 1161.17 2640.54 1316.95 2402.81 1316.95Z" fill="#0078D4" fill-rule="evenodd"/><path d="M2005.35 1316.95 2196.4 1316.95 2196.4 1411.53 2005.35 1411.53Z" fill="#CBD6EF" fill-rule="evenodd"/><path d="M2196.4 1316.95 2402.81 1316.95 2402.81 1411.53 2196.4 1411.53Z" fill="#CBD6EF" fill-rule="evenodd"/><path d="M2402.81 1316.95 2640.54 1316.95 2640.54 1411.53 2402.81 1411.53Z" fill="#CBD6EF" fill-rule="evenodd"/><path d="M2005.35 1411.53 2196.4 1411.53 2196.4 1506.11 2005.35 1506.11Z" fill="#E7ECF7" fill-rule="evenodd"/><path d="M2196.4 1411.53 2402.81 1411.53 2402.81 1506.11 2196.4 1506.11Z" fill="#E7ECF7" fill-rule="evenodd"/><path d="M2402.81 1411.53 2640.54 1411.53 2640.54 1506.11 2402.81 1506.11Z" fill="#E7ECF7" fill-rule="evenodd"/><path d="M2196.4 1158.88 2196.4 1508.4" stroke="#FFFFFF" stroke-width="4.58333" stroke-linejoin="round" stroke-miterlimit="10" fill="none" fill-rule="evenodd"/><path d="M2402.81 1158.88 2402.81 1508.4" stroke="#FFFFFF" stroke-width="4.58333" stroke-linejoin="round" stroke-miterlimit="10" fill="none" fill-rule="evenodd"/><path d="M2003.06 1316.95 2642.83 1316.95" stroke="#FFFFFF" stroke-width="13.75" stroke-linejoin="round" stroke-miterlimit="10" fill="none" fill-rule="evenodd"/><path d="M2003.06 1411.53 2642.83 1411.53" stroke="#FFFFFF" stroke-width="4.58333" stroke-linejoin="round" stroke-miterlimit="10" fill="none" fill-rule="evenodd"/><path d="M2005.35 1158.88 2005.35 1508.4" stroke="#FFFFFF" stroke-width="4.58333" stroke-linejoin="round" stroke-miterlimit="10" fill="none" fill-rule="evenodd"/><path d="M2640.54 1158.88 2640.54 1508.4" stroke="#FFFFFF" stroke-width="4.58333" stroke-linejoin="round" stroke-miterlimit="10" fill="none" fill-rule="evenodd"/><path d="M2003.06 1161.17 2642.83 1161.17" stroke="#FFFFFF" stroke-width="4.58333" stroke-linejoin="round" stroke-miterlimit="10" fill="none" fill-rule="evenodd"/><path d="M2003.06 1506.11 2642.83 1506.11" stroke="#FFFFFF" stroke-width="4.58333" stroke-linejoin="round" stroke-miterlimit="10" fill="none" fill-rule="evenodd"/><g><text fill="#FFFFFF" font-family="Segoe UI,Segoe UI_MSFontService,sans-serif" font-weight="700" font-size="50" transform="matrix(1 0 0 1 2415.8 1223)">On</text></g><text fill="#FFFFFF" font-family="Segoe UI,Segoe UI_MSFontService,sans-serif" font-weight="700" font-size="50" transform="matrix(1 0 0 1 2484.55 1223)">-</text><g><text fill="#FFFFFF" font-family="Segoe UI,Segoe UI_MSFontService,sans-serif" font-weight="700" font-size="50" transform="matrix(1 0 0 1 2505.18 1223)">hand </text></g><g><text fill="#FFFFFF" font-family="Segoe UI,Segoe UI_MSFontService,sans-serif" font-weight="700" font-size="50" transform="matrix(1 0 0 1 2415.8 1284)">quantity</text></g><g><text fill="#FFFFFF" font-family="Segoe UI,Segoe UI_MSFontService,sans-serif" font-weight="700" font-size="50" transform="matrix(1 0 0 1 2209.39 1223)">Owner</text></g><g><text fill="#FFFFFF" font-family="Segoe UI,Segoe UI_MSFontService,sans-serif" font-weight="700" font-size="50" transform="matrix(1 0 0 1 2018.34 1223)">Item</text></g><g><text font-family="Segoe UI,Segoe UI_MSFontService,sans-serif" font-weight="400" font-size="50" transform="matrix(1 0 0 1 2415.8 1474)">130</text></g><g><text font-family="Segoe UI,Segoe UI_MSFontService,sans-serif" font-weight="400" font-size="50" transform="matrix(1 0 0 1 2018.34 1474)">A0001</text></g><rect x="1451" y="1158" width="1190" height="347" stroke="#FFFFFF" stroke-width="8.02083" stroke-linejoin="round" stroke-miterlimit="10" fill="none"/></g></svg>