<svg width="1280" height="720" xmlns="http://www.w3.org/2000/svg" xmlns:xlink="http://www.w3.org/1999/xlink" overflow="hidden"><g><rect x="0" y="0" width="1280" height="720" fill="#FFFFFF"/><rect x="59" y="190" width="1141" height="335" stroke="#156082" stroke-width="6" stroke-linejoin="round" stroke-miterlimit="10" fill="none"/><path d="M6.66667-0.666667 28.3209-0.666667 28.3209 364.011 6.7915 364.011 6.7915 362.678 27.6543 362.678 26.9876 363.345 26.9876 0 27.6543 0.666667 6.66667 0.666667ZM8 6.66667 0 0 8-6.66667ZM8.12483 370.011 0.124829 363.345 8.12483 356.678Z" transform="matrix(1.83697e-16 1 1 -1.83697e-16 640.5 446.5)"/><text font-family="Aptos,Aptos_MSFontService,sans-serif" font-weight="700" font-size="32" transform="translate(449.38 224)">Microsoft Dynamics 365</text><text font-family="Aptos,Aptos_MSFontService,sans-serif" font-weight="400" font-size="18.6667" transform="translate(856.735 493)">Inbound and Outbound shipment orders</text><rect x="822" y="247" width="362" height="199" fill="#FF9349"/><text fill="#FFFFFF" font-family="Aptos,Aptos_MSFontService,sans-serif" font-weight="400" font-size="26.6667" transform="translate(870.007 287)">Distribution legal entity</text><text fill="#FFFFFF" font-family="Aptos,Aptos_MSFontService,sans-serif" font-weight="700" font-size="26.6667" transform="translate(957.507 319)">(</text><text fill="#FFFFFF" font-family="Aptos,Aptos_MSFontService,sans-serif" font-weight="700" font-size="26.6667" transform="translate(965.34 319)">USSW</text><text fill="#FFFFFF" font-family="Aptos,Aptos_MSFontService,sans-serif" font-weight="700" font-size="26.6667" transform="translate(1040.66 319)">)</text><rect x="831" y="338" width="160" height="100" fill="#FF9349"/><text fill="#FFFFFF" font-family="Aptos,Aptos_MSFontService,sans-serif" font-weight="400" font-size="26.6667" transform="translate(845.71 365)">Warehouse</text><text fill="#FFFFFF" font-family="Aptos,Aptos_MSFontService,sans-serif" font-weight="400" font-size="26.6667" transform="translate(834.823 397)">management</text><text fill="#FFFFFF" font-family="Aptos,Aptos_MSFontService,sans-serif" font-weight="400" font-size="26.6667" transform="translate(850.977 429)">only mode</text><path d="M259.018 452.166 258.988 475.161 258.321 474.493 1003.51 474.493 1002.84 475.16 1002.84 453.459 1004.18 453.459 1004.18 475.827 257.654 475.827 257.684 452.164ZM251.656 453.349 258.5 445.5 264.986 453.647ZM996.842 454.792 1003.51 446.792 1010.18 454.792Z"/><path d="M991.995 337.939 1053.18 337.939 1053.18 383.257 991.995 383.257Z" fill="#FFB900" fill-rule="evenodd"/><path d="M1053.18 337.939 1107.62 337.939 1107.62 383.257 1053.18 383.257Z" fill="#FFB900" fill-rule="evenodd"/><path d="M1107.62 337.939 1176.78 337.939 1176.78 383.257 1107.62 383.257Z" fill="#FFB900" fill-rule="evenodd"/><path d="M991.995 383.257 1053.18 383.257 1053.18 410.771 991.995 410.771Z" fill="#FFE399" fill-rule="evenodd"/><path d="M1053.18 383.257 1107.62 383.257 1107.62 410.771 1053.18 410.771Z" fill="#FFE399" fill-rule="evenodd"/><path d="M1107.62 383.257 1176.78 383.257 1176.78 410.771 1107.62 410.771Z" fill="#FFE399" fill-rule="evenodd"/><path d="M991.995 410.771 1053.18 410.771 1053.18 438.286 991.995 438.286Z" fill="#FFF1CC" fill-rule="evenodd"/><path d="M1053.18 410.771 1107.62 410.771 1107.62 438.286 1053.18 438.286Z" fill="#FFF1CC" fill-rule="evenodd"/><path d="M1107.62 410.771 1176.78 410.771 1176.78 438.286 1107.62 438.286Z" fill="#FFF1CC" fill-rule="evenodd"/><path d="M1053.18 337.273 1053.18 438.952" stroke="#FFFFFF" stroke-width="1.33333" stroke-linejoin="round" stroke-miterlimit="10" fill="none" fill-rule="evenodd"/><path d="M1107.62 337.273 1107.62 438.952" stroke="#FFFFFF" stroke-width="1.33333" stroke-linejoin="round" stroke-miterlimit="10" fill="none" fill-rule="evenodd"/><path d="M991.328 383.257 1177.45 383.257" stroke="#FFFFFF" stroke-width="4" stroke-linejoin="round" stroke-miterlimit="10" fill="none" fill-rule="evenodd"/><path d="M991.328 410.771 1177.45 410.771" stroke="#FFFFFF" stroke-width="1.33333" stroke-linejoin="round" stroke-miterlimit="10" fill="none" fill-rule="evenodd"/><path d="M991.995 337.273 991.995 438.952" stroke="#FFFFFF" stroke-width="1.33333" stroke-linejoin="round" stroke-miterlimit="10" fill="none" fill-rule="evenodd"/><path d="M1176.78 337.273 1176.78 438.952" stroke="#FFFFFF" stroke-width="1.33333" stroke-linejoin="round" stroke-miterlimit="10" fill="none" fill-rule="evenodd"/><path d="M991.328 337.939 1177.45 337.939" stroke="#FFFFFF" stroke-width="1.33333" stroke-linejoin="round" stroke-miterlimit="10" fill="none" fill-rule="evenodd"/><path d="M991.328 438.286 1177.45 438.286" stroke="#FFFFFF" stroke-width="1.33333" stroke-linejoin="round" stroke-miterlimit="10" fill="none" fill-rule="evenodd"/><g><text fill="#FFFFFF" font-family="Segoe UI,Segoe UI_MSFontService,sans-serif" font-weight="700" font-size="14.6667" transform="translate(1111.4 356)">On</text></g><text fill="#FFFFFF" font-family="Segoe UI,Segoe UI_MSFontService,sans-serif" font-weight="700" font-size="14.6667" transform="translate(1131.4 356)">-</text><g><text fill="#FFFFFF" font-family="Segoe UI,Segoe UI_MSFontService,sans-serif" font-weight="700" font-size="14.6667" transform="translate(1137.4 356)">hand</text></g><g><text fill="#FFFFFF" font-family="Segoe UI,Segoe UI_MSFontService,sans-serif" font-weight="700" font-size="14.6667" transform="translate(1111.4 374)">quantity</text></g><g><text fill="#FFFFFF" font-family="Segoe UI,Segoe UI_MSFontService,sans-serif" font-weight="700" font-size="14.6667" transform="translate(1056.96 356)">Owner</text></g><g><text fill="#FFFFFF" font-family="Segoe UI,Segoe UI_MSFontService,sans-serif" font-weight="700" font-size="14.6667" transform="translate(995.774 356)">Item</text></g><g><text font-family="Segoe UI,Segoe UI_MSFontService,sans-serif" font-weight="400" font-size="14.6667" transform="translate(1111.4 401)">100</text></g><g><text font-family="Segoe UI,Segoe UI_MSFontService,sans-serif" font-weight="400" font-size="14.6667" transform="translate(1056.96 401)">USMF</text></g><g><text font-family="Segoe UI,Segoe UI_MSFontService,sans-serif" font-weight="400" font-size="14.6667" transform="translate(995.774 401)">SW0001</text></g><g><text font-family="Segoe UI,Segoe UI_MSFontService,sans-serif" font-weight="400" font-size="14.6667" transform="translate(1111.4 429)">130</text></g><g><text font-family="Segoe UI,Segoe UI_MSFontService,sans-serif" font-weight="400" font-size="14.6667" transform="translate(1056.96 429)">LE2</text></g><g><text font-family="Segoe UI,Segoe UI_MSFontService,sans-serif" font-weight="400" font-size="14.6667" transform="translate(995.774 429)">W0007</text></g><text font-family="Aptos,Aptos_MSFontService,sans-serif" font-weight="400" font-size="18.6667" transform="translate(347.64 491)">Purchase and Sales orders</text><rect x="831" y="337" width="346" height="101" stroke="#FFFFFF" stroke-width="2.33333" stroke-linejoin="round" stroke-miterlimit="10" fill="none"/><rect x="77" y="246" width="379" height="200" fill="#156082"/><text fill="#FFFFFF" font-family="Aptos,Aptos_MSFontService,sans-serif" font-weight="400" font-size="26.6667" transform="translate(159.639 287)">Sales legal entity 1</text><text fill="#FFFFFF" font-family="Aptos,Aptos_MSFontService,sans-serif" font-weight="700" font-size="26.6667" transform="translate(223.126 319)">(</text><text fill="#FFFFFF" font-family="Aptos,Aptos_MSFontService,sans-serif" font-weight="700" font-size="26.6667" transform="translate(230.959 319)">USM</text><text fill="#FFFFFF" font-family="Aptos,Aptos_MSFontService,sans-serif" font-weight="700" font-size="26.6667" transform="translate(287.292 319)">F</text><text fill="#FFFFFF" font-family="Aptos,Aptos_MSFontService,sans-serif" font-weight="700" font-size="26.6667" transform="translate(301.626 319)">)</text><rect x="86" y="338" width="160" height="100" fill="#0E6D87"/><text fill="#FFFFFF" font-family="Aptos,Aptos_MSFontService,sans-serif" font-weight="400" font-size="26.6667" transform="translate(127.298 365)">PO/SO</text><text fill="#FFFFFF" font-family="Aptos,Aptos_MSFontService,sans-serif" font-weight="400" font-size="26.6667" transform="translate(113.138 397)">including</text><text fill="#FFFFFF" font-family="Aptos,Aptos_MSFontService,sans-serif" font-weight="400" font-size="26.6667" transform="translate(109.885 429)">financials</text><path d="M246.986 337.815 307.861 337.815 307.861 383.132 246.986 383.132Z" fill="#0078D4" fill-rule="evenodd"/><path d="M307.861 337.815 373.631 337.815 373.631 383.132 307.861 383.132Z" fill="#0078D4" fill-rule="evenodd"/><path d="M373.631 337.815 449.379 337.815 449.379 383.132 373.631 383.132Z" fill="#0078D4" fill-rule="evenodd"/><path d="M246.986 383.132 307.861 383.132 307.861 410.647 246.986 410.647Z" fill="#CBD6EF" fill-rule="evenodd"/><path d="M307.861 383.132 373.631 383.132 373.631 410.647 307.861 410.647Z" fill="#CBD6EF" fill-rule="evenodd"/><path d="M373.631 383.132 449.379 383.132 449.379 410.647 373.631 410.647Z" fill="#CBD6EF" fill-rule="evenodd"/><path d="M246.986 410.647 307.861 410.647 307.861 438.161 246.986 438.161Z" fill="#E7ECF7" fill-rule="evenodd"/><path d="M307.861 410.647 373.631 410.647 373.631 438.161 307.861 438.161Z" fill="#E7ECF7" fill-rule="evenodd"/><path d="M373.631 410.647 449.379 410.647 449.379 438.161 373.631 438.161Z" fill="#E7ECF7" fill-rule="evenodd"/><path d="M307.861 337.148 307.861 438.828" stroke="#FFFFFF" stroke-width="1.33333" stroke-linejoin="round" stroke-miterlimit="10" fill="none" fill-rule="evenodd"/><path d="M373.631 337.148 373.631 438.828" stroke="#FFFFFF" stroke-width="1.33333" stroke-linejoin="round" stroke-miterlimit="10" fill="none" fill-rule="evenodd"/><path d="M246.32 383.132 450.046 383.132" stroke="#FFFFFF" stroke-width="4" stroke-linejoin="round" stroke-miterlimit="10" fill="none" fill-rule="evenodd"/><path d="M246.32 410.647 450.046 410.647" stroke="#FFFFFF" stroke-width="1.33333" stroke-linejoin="round" stroke-miterlimit="10" fill="none" fill-rule="evenodd"/><path d="M246.986 337.148 246.986 438.828" stroke="#FFFFFF" stroke-width="1.33333" stroke-linejoin="round" stroke-miterlimit="10" fill="none" fill-rule="evenodd"/><path d="M449.379 337.148 449.379 438.828" stroke="#FFFFFF" stroke-width="1.33333" stroke-linejoin="round" stroke-miterlimit="10" fill="none" fill-rule="evenodd"/><path d="M246.32 337.815 450.046 337.815" stroke="#FFFFFF" stroke-width="1.33333" stroke-linejoin="round" stroke-miterlimit="10" fill="none" fill-rule="evenodd"/><path d="M246.32 438.161 450.046 438.161" stroke="#FFFFFF" stroke-width="1.33333" stroke-linejoin="round" stroke-miterlimit="10" fill="none" fill-rule="evenodd"/><g><text fill="#FFFFFF" font-family="Segoe UI,Segoe UI_MSFontService,sans-serif" font-weight="700" font-size="14.6667" transform="translate(377.41 356)">On</text></g><text fill="#FFFFFF" font-family="Segoe UI,Segoe UI_MSFontService,sans-serif" font-weight="700" font-size="14.6667" transform="translate(397.41 356)">-</text><g><text fill="#FFFFFF" font-family="Segoe UI,Segoe UI_MSFontService,sans-serif" font-weight="700" font-size="14.6667" transform="translate(403.41 356)">hand</text></g><g><text fill="#FFFFFF" font-family="Segoe UI,Segoe UI_MSFontService,sans-serif" font-weight="700" font-size="14.6667" transform="translate(377.41 374)">quantity</text></g><g><text fill="#FFFFFF" font-family="Segoe UI,Segoe UI_MSFontService,sans-serif" font-weight="700" font-size="14.6667" transform="translate(311.64 356)">Owner</text></g><g><text fill="#FFFFFF" font-family="Segoe UI,Segoe UI_MSFontService,sans-serif" font-weight="700" font-size="14.6667" transform="translate(250.766 356)">Item</text></g><g><text font-family="Segoe UI,Segoe UI_MSFontService,sans-serif" font-weight="400" font-size="14.6667" transform="translate(377.41 401)">100</text></g><g><text font-family="Segoe UI,Segoe UI_MSFontService,sans-serif" font-weight="400" font-size="14.6667" transform="translate(250.766 401)">SW0001</text></g><rect x="86" y="337" width="361" height="101" stroke="#FFFFFF" stroke-width="2.33333" stroke-linejoin="round" stroke-miterlimit="10" fill="none"/><rect x="463" y="246" width="353" height="200" fill="#156082"/><text fill="#FFFFFF" font-family="Aptos,Aptos_MSFontService,sans-serif" font-weight="400" font-size="26.6667" transform="translate(533.002 287)">Sales legal entity 2</text><text fill="#FFFFFF" font-family="Aptos,Aptos_MSFontService,sans-serif" font-weight="700" font-size="26.6667" transform="translate(610.242 319)">(LE2)</text><rect x="466" y="338" width="153" height="100" fill="#0E6D87"/><text fill="#FFFFFF" font-family="Aptos,Aptos_MSFontService,sans-serif" font-weight="400" font-size="26.6667" transform="translate(503.895 365)">PO/</text><text fill="#FFFFFF" font-family="Aptos,Aptos_MSFontService,sans-serif" font-weight="400" font-size="26.6667" transform="translate(546.742 365)">SO</text><text fill="#FFFFFF" font-family="Aptos,Aptos_MSFontService,sans-serif" font-weight="400" font-size="26.6667" transform="translate(489.735 397)">including</text><text fill="#FFFFFF" font-family="Aptos,Aptos_MSFontService,sans-serif" font-weight="400" font-size="26.6667" transform="translate(486.482 429)">financials</text><path d="M619.374 337.794 676.858 337.794 676.858 383.112 619.374 383.112Z" fill="#0078D4" fill-rule="evenodd"/><path d="M676.858 337.794 738.965 337.794 738.965 383.112 676.858 383.112Z" fill="#0078D4" fill-rule="evenodd"/><path d="M738.965 337.794 810.495 337.794 810.495 383.112 738.965 383.112Z" fill="#0078D4" fill-rule="evenodd"/><path d="M619.374 383.112 676.858 383.112 676.858 410.626 619.374 410.626Z" fill="#CBD6EF" fill-rule="evenodd"/><path d="M676.858 383.112 738.965 383.112 738.965 410.626 676.858 410.626Z" fill="#CBD6EF" fill-rule="evenodd"/><path d="M738.965 383.112 810.495 383.112 810.495 410.626 738.965 410.626Z" fill="#CBD6EF" fill-rule="evenodd"/><path d="M619.374 410.626 676.858 410.626 676.858 438.141 619.374 438.141Z" fill="#E7ECF7" fill-rule="evenodd"/><path d="M676.858 410.626 738.965 410.626 738.965 438.141 676.858 438.141Z" fill="#E7ECF7" fill-rule="evenodd"/><path d="M738.965 410.626 810.495 410.626 810.495 438.141 738.965 438.141Z" fill="#E7ECF7" fill-rule="evenodd"/><path d="M676.858 337.128 676.858 438.807" stroke="#FFFFFF" stroke-width="1.33333" stroke-linejoin="round" stroke-miterlimit="10" fill="none" fill-rule="evenodd"/><path d="M738.965 337.128 738.965 438.807" stroke="#FFFFFF" stroke-width="1.33333" stroke-linejoin="round" stroke-miterlimit="10" fill="none" fill-rule="evenodd"/><path d="M618.707 383.112 811.161 383.112" stroke="#FFFFFF" stroke-width="4" stroke-linejoin="round" stroke-miterlimit="10" fill="none" fill-rule="evenodd"/><path d="M618.707 410.626 811.161 410.626" stroke="#FFFFFF" stroke-width="1.33333" stroke-linejoin="round" stroke-miterlimit="10" fill="none" fill-rule="evenodd"/><path d="M619.374 337.128 619.374 438.807" stroke="#FFFFFF" stroke-width="1.33333" stroke-linejoin="round" stroke-miterlimit="10" fill="none" fill-rule="evenodd"/><path d="M810.495 337.128 810.495 438.807" stroke="#FFFFFF" stroke-width="1.33333" stroke-linejoin="round" stroke-miterlimit="10" fill="none" fill-rule="evenodd"/><path d="M618.707 337.794 811.161 337.794" stroke="#FFFFFF" stroke-width="1.33333" stroke-linejoin="round" stroke-miterlimit="10" fill="none" fill-rule="evenodd"/><path d="M618.707 438.141 811.161 438.141" stroke="#FFFFFF" stroke-width="1.33333" stroke-linejoin="round" stroke-miterlimit="10" fill="none" fill-rule="evenodd"/><g><text fill="#FFFFFF" font-family="Segoe UI,Segoe UI_MSFontService,sans-serif" font-weight="700" font-size="14.6667" transform="translate(742.745 356)">On</text></g><text fill="#FFFFFF" font-family="Segoe UI,Segoe UI_MSFontService,sans-serif" font-weight="700" font-size="14.6667" transform="translate(762.745 356)">-</text><g><text fill="#FFFFFF" font-family="Segoe UI,Segoe UI_MSFontService,sans-serif" font-weight="700" font-size="14.6667" transform="translate(768.745 356)">hand</text></g><g><text fill="#FFFFFF" font-family="Segoe UI,Segoe UI_MSFontService,sans-serif" font-weight="700" font-size="14.6667" transform="translate(742.745 374)">quantity</text></g><g><text fill="#FFFFFF" font-family="Segoe UI,Segoe UI_MSFontService,sans-serif" font-weight="700" font-size="14.6667" transform="translate(680.638 356)">Owner</text></g><g><text fill="#FFFFFF" font-family="Segoe UI,Segoe UI_MSFontService,sans-serif" font-weight="700" font-size="14.6667" transform="translate(623.154 356)">Item</text></g><g><text font-family="Segoe UI,Segoe UI_MSFontService,sans-serif" font-weight="400" font-size="14.6667" transform="translate(742.745 428)">130</text></g><g><text font-family="Segoe UI,Segoe UI_MSFontService,sans-serif" font-weight="400" font-size="14.6667" transform="translate(623.154 428)">W0007</text></g><rect x="467" y="337" width="343" height="101" stroke="#FFFFFF" stroke-width="2.33333" stroke-linejoin="round" stroke-miterlimit="10" fill="none"/></g></svg>