<svg width="3905" height="1006" xmlns="http://www.w3.org/2000/svg" xmlns:xlink="http://www.w3.org/1999/xlink" xml:space="preserve" overflow="hidden"><g transform="translate(-227 -635)"><rect x="2555.5" y="655.5" width="1558" height="975" stroke="#156082" stroke-width="20.625" stroke-linejoin="round" stroke-miterlimit="10" fill="none"/><text font-family="Aptos,Aptos_MSFontService,sans-serif" font-weight="700" font-size="110" transform="matrix(1 0 0 1 2608.22 780)">Microsoft </text><text font-family="Aptos,Aptos_MSFontService,sans-serif" font-weight="700" font-size="110" transform="matrix(1 0 0 1 3109.2 780)">Dynamics 365</text><text font-family="Aptos,Aptos_MSFontService,sans-serif" font-weight="700" font-size="110" transform="matrix(1 0 0 1 3831.65 780)">SCM</text><rect x="2723" y="847" width="1245" height="687" fill="#156082"/><text fill="#FFFFFF" font-family="Aptos,Aptos_MSFontService,sans-serif" font-weight="400" font-size="92" transform="matrix(1 0 0 1 2888.25 985)">Distribution legal entity </text><text fill="#FFFFFF" font-family="Aptos,Aptos_MSFontService,sans-serif" font-weight="700" font-size="92" transform="matrix(1 0 0 1 3204.69 1095)">(WOM)</text><rect x="2753" y="1161" width="553" height="346" fill="#0E6D87"/><text fill="#FFFFFF" font-family="Aptos,Aptos_MSFontService,sans-serif" font-weight="400" font-size="92" transform="matrix(1 0 0 1 2804.73 1254)">Warehouse </text><text fill="#FFFFFF" font-family="Aptos,Aptos_MSFontService,sans-serif" font-weight="400" font-size="92" transform="matrix(1 0 0 1 2767.31 1364)">management </text><text fill="#FFFFFF" font-family="Aptos,Aptos_MSFontService,sans-serif" font-weight="400" font-size="92" transform="matrix(1 0 0 1 2822.84 1474)">only mode</text><text font-family="Aptos,Aptos_MSFontService,sans-serif" font-weight="400" font-size="64" transform="matrix(1 0 0 1 1639.96 887)">Purchase</text><text font-family="Aptos,Aptos_MSFontService,sans-serif" font-weight="400" font-size="64" transform="matrix(1 0 0 1 1913.29 887)">and</text><text font-family="Aptos,Aptos_MSFontService,sans-serif" font-weight="400" font-size="64" transform="matrix(1 0 0 1 1639.96 964)">Sales</text><text font-family="Aptos,Aptos_MSFontService,sans-serif" font-weight="400" font-size="64" transform="matrix(1 0 0 1 1804.96 964)">order</text><text font-family="Aptos,Aptos_MSFontService,sans-serif" font-weight="400" font-size="64" transform="matrix(1 0 0 1 1639.96 1041)">shipments</text><rect x="306" y="847" width="1244" height="686" fill="#156082"/><text fill="#FFFFFF" font-family="Aptos,Aptos_MSFontService,sans-serif" font-weight="700" font-size="92" transform="matrix(1 0 0 1 594.935 985)">External system</text><rect x="336" y="1161" width="553" height="345" fill="#0E6D87"/><text fill="#FFFFFF" font-family="Aptos,Aptos_MSFontService,sans-serif" font-weight="400" font-size="92" transform="matrix(1 0 0 1 478.838 1254)">PO/SO </text><text fill="#FFFFFF" font-family="Aptos,Aptos_MSFontService,sans-serif" font-weight="400" font-size="92" transform="matrix(1 0 0 1 430.163 1364)">including </text><text fill="#FFFFFF" font-family="Aptos,Aptos_MSFontService,sans-serif" font-weight="400" font-size="92" transform="matrix(1 0 0 1 418.979 1474)">financials</text><path d="M890.266 1161.24 1205.18 1161.24 1205.18 1317.02 890.266 1317.02Z" fill="#0078D4" fill-rule="evenodd"/><path d="M1205.18 1161.24 1510.73 1161.24 1510.73 1317.02 1205.18 1317.02Z" fill="#0078D4" fill-rule="evenodd"/><path d="M890.266 1317.02 1205.18 1317.02 1205.18 1411.6 890.266 1411.6Z" fill="#CBD6EF" fill-rule="evenodd"/><path d="M1205.18 1317.02 1510.73 1317.02 1510.73 1411.6 1205.18 1411.6Z" fill="#CBD6EF" fill-rule="evenodd"/><path d="M890.266 1411.6 1205.18 1411.6 1205.18 1506.18 890.266 1506.18Z" fill="#E7ECF7" fill-rule="evenodd"/><path d="M1205.18 1411.6 1510.73 1411.6 1510.73 1506.18 1205.18 1506.18Z" fill="#E7ECF7" fill-rule="evenodd"/><path d="M1205.18 1158.95 1205.18 1508.47" stroke="#FFFFFF" stroke-width="4.58333" stroke-linejoin="round" stroke-miterlimit="10" fill="none" fill-rule="evenodd"/><path d="M887.974 1317.02 1513.03 1317.02" stroke="#FFFFFF" stroke-width="13.75" stroke-linejoin="round" stroke-miterlimit="10" fill="none" fill-rule="evenodd"/><path d="M887.974 1411.6 1513.03 1411.6" stroke="#FFFFFF" stroke-width="4.58333" stroke-linejoin="round" stroke-miterlimit="10" fill="none" fill-rule="evenodd"/><path d="M890.266 1158.95 890.266 1508.47" stroke="#FFFFFF" stroke-width="4.58333" stroke-linejoin="round" stroke-miterlimit="10" fill="none" fill-rule="evenodd"/><path d="M1510.73 1158.95 1510.73 1508.47" stroke="#FFFFFF" stroke-width="4.58333" stroke-linejoin="round" stroke-miterlimit="10" fill="none" fill-rule="evenodd"/><path d="M887.974 1161.24 1513.03 1161.24" stroke="#FFFFFF" stroke-width="4.58333" stroke-linejoin="round" stroke-miterlimit="10" fill="none" fill-rule="evenodd"/><path d="M887.974 1506.18 1513.03 1506.18" stroke="#FFFFFF" stroke-width="4.58333" stroke-linejoin="round" stroke-miterlimit="10" fill="none" fill-rule="evenodd"/><g><text fill="#FFFFFF" font-family="Segoe UI,Segoe UI_MSFontService,sans-serif" font-weight="700" font-size="50" transform="matrix(1 0 0 1 1218.17 1223)">On</text></g><text fill="#FFFFFF" font-family="Segoe UI,Segoe UI_MSFontService,sans-serif" font-weight="700" font-size="50" transform="matrix(1 0 0 1 1286.92 1223)">-</text><text fill="#FFFFFF" font-family="Segoe UI,Segoe UI_MSFontService,sans-serif" font-weight="700" font-size="50" transform="matrix(1 0 0 1 1307.54 1223)">hand </text><g><text fill="#FFFFFF" font-family="Segoe UI,Segoe UI_MSFontService,sans-serif" font-weight="700" font-size="50" transform="matrix(1 0 0 1 1218.17 1284)">quantity</text></g><g><text fill="#FFFFFF" font-family="Segoe UI,Segoe UI_MSFontService,sans-serif" font-weight="700" font-size="50" transform="matrix(1 0 0 1 903.258 1223)">Item</text></g><g><text font-family="Segoe UI,Segoe UI_MSFontService,sans-serif" font-weight="400" font-size="50" transform="matrix(1 0 0 1 1218.17 1379)">100</text></g><g><text font-family="Segoe UI,Segoe UI_MSFontService,sans-serif" font-weight="400" font-size="50" transform="matrix(1 0 0 1 903.258 1379)">W</text></g><text font-family="Segoe UI,Segoe UI_MSFontService,sans-serif" font-weight="400" font-size="50" transform="matrix(1 0 0 1 950.237 1379)">000</text><text font-family="Segoe UI,Segoe UI_MSFontService,sans-serif" font-weight="400" font-size="50" transform="matrix(1 0 0 1 1031.02 1379)">7</text><g><text font-family="Segoe UI,Segoe UI_MSFontService,sans-serif" font-weight="400" font-size="50" transform="matrix(1 0 0 1 1218.17 1474)">130</text></g><g><text font-family="Segoe UI,Segoe UI_MSFontService,sans-serif" font-weight="400" font-size="50" transform="matrix(1 0 0 1 903.258 1474)">W0008</text></g><rect x="1847" y="1050" width="474" height="184" fill="#4371E4"/><text fill="#FFFFFF" font-family="Aptos,Aptos_MSFontService,sans-serif" font-weight="400" font-size="73" transform="matrix(1 0 0 1 1916.04 1122)">Messaging </text><text fill="#FFFFFF" font-family="Aptos,Aptos_MSFontService,sans-serif" font-weight="400" font-size="73" transform="matrix(1 0 0 1 1897.23 1210)">middleware</text><path d="M6.80596-3.43749 164.27-3.43715 164.27 3.43785 6.80595 3.43751ZM32.5742 19.011-0.0159314-1.34443e-10 32.5742-19.0108C34.2141-19.9674 36.3189-19.4135 37.2755-17.7736 38.2321-16.1338 37.6782-14.0289 36.0383-13.0724L8.5383 2.96926 8.53831-2.96922 36.0383 13.0725C37.6781 14.0291 38.232 16.1339 37.2754 17.7738 36.3189 19.4137 34.214 19.9676 32.5742 19.011ZM138.502-19.0106 171.092 0.000360893 138.502 19.0112C136.862 19.9678 134.757 19.4139 133.8 17.774 132.844 16.1341 133.398 14.0293 135.038 13.0727L162.538-2.9689 162.538 2.96958 135.038-13.0721C133.398-14.0287 132.844-16.1336 133.801-17.7734 134.757-19.4133 136.862-19.9672 138.502-19.0106Z" fill="#0078D4" transform="matrix(-1 0 0 1 1821.58 1137.5)"/><rect x="237.5" y="655.5" width="1377" height="975" stroke="#156082" stroke-width="20.625" stroke-linejoin="round" stroke-miterlimit="10" fill="none"/><text font-family="Aptos,Aptos_MSFontService,sans-serif" font-weight="700" font-size="110" transform="matrix(1 0 0 1 427.931 771)">External ERP system</text><path d="M6.80596-3.43749 164.27-3.43715 164.27 3.43785 6.80595 3.43751ZM32.5742 19.011-0.0159314-1.34443e-10 32.5742-19.0108C34.2141-19.9674 36.3189-19.4135 37.2755-17.7736 38.2321-16.1338 37.6782-14.0289 36.0383-13.0724L8.5383 2.96926 8.53831-2.96922 36.0383 13.0725C37.6781 14.0291 38.232 16.1339 37.2754 17.7738 36.3189 19.4137 34.214 19.9676 32.5742 19.011ZM138.502-19.0106 171.092 0.000360893 138.502 19.0112C136.862 19.9678 134.757 19.4139 133.8 17.774 132.844 16.1341 133.398 14.0293 135.038 13.0727L162.538-2.9689 162.538 2.96958 135.038-13.0721C133.398-14.0287 132.844-16.1336 133.801-17.7734 134.757-19.4133 136.862-19.9672 138.502-19.0106Z" fill="#0078D4" transform="matrix(-1 0 0 1 2517.58 1133.5)"/><text font-family="Aptos,Aptos_MSFontService,sans-serif" font-weight="400" font-size="64" transform="matrix(1 0 0 1 2182.2 1300)">Inbound and </text><text font-family="Aptos,Aptos_MSFontService,sans-serif" font-weight="400" font-size="64" transform="matrix(1 0 0 1 2249.8 1377)">Outbound </text><text font-family="Aptos,Aptos_MSFontService,sans-serif" font-weight="400" font-size="64" transform="matrix(1 0 0 1 2079.42 1454)">shipment orders</text><path d="M3317.53 1159.49 3632.44 1159.49 3632.44 1315.27 3317.53 1315.27Z" fill="#0078D4" fill-rule="evenodd"/><path d="M3632.44 1159.49 3938 1159.49 3938 1315.27 3632.44 1315.27Z" fill="#0078D4" fill-rule="evenodd"/><path d="M3317.53 1315.27 3632.44 1315.27 3632.44 1409.85 3317.53 1409.85Z" fill="#CBD6EF" fill-rule="evenodd"/><path d="M3632.44 1315.27 3938 1315.27 3938 1409.85 3632.44 1409.85Z" fill="#CBD6EF" fill-rule="evenodd"/><path d="M3317.53 1409.85 3632.44 1409.85 3632.44 1504.43 3317.53 1504.43Z" fill="#E7ECF7" fill-rule="evenodd"/><path d="M3632.44 1409.85 3938 1409.85 3938 1504.43 3632.44 1504.43Z" fill="#E7ECF7" fill-rule="evenodd"/><path d="M3632.44 1157.2 3632.44 1506.72" stroke="#FFFFFF" stroke-width="4.58333" stroke-linejoin="round" stroke-miterlimit="10" fill="none" fill-rule="evenodd"/><path d="M3315.24 1315.27 3940.29 1315.27" stroke="#FFFFFF" stroke-width="13.75" stroke-linejoin="round" stroke-miterlimit="10" fill="none" fill-rule="evenodd"/><path d="M3315.24 1409.85 3940.29 1409.85" stroke="#FFFFFF" stroke-width="4.58333" stroke-linejoin="round" stroke-miterlimit="10" fill="none" fill-rule="evenodd"/><path d="M3317.53 1157.2 3317.53 1506.72" stroke="#FFFFFF" stroke-width="4.58333" stroke-linejoin="round" stroke-miterlimit="10" fill="none" fill-rule="evenodd"/><path d="M3938 1157.2 3938 1506.72" stroke="#FFFFFF" stroke-width="4.58333" stroke-linejoin="round" stroke-miterlimit="10" fill="none" fill-rule="evenodd"/><path d="M3315.24 1159.49 3940.29 1159.49" stroke="#FFFFFF" stroke-width="4.58333" stroke-linejoin="round" stroke-miterlimit="10" fill="none" fill-rule="evenodd"/><path d="M3315.24 1504.43 3940.29 1504.43" stroke="#FFFFFF" stroke-width="4.58333" stroke-linejoin="round" stroke-miterlimit="10" fill="none" fill-rule="evenodd"/><g><text fill="#FFFFFF" font-family="Segoe UI,Segoe UI_MSFontService,sans-serif" font-weight="700" font-size="50" transform="matrix(1 0 0 1 3645.43 1221)">On</text></g><text fill="#FFFFFF" font-family="Segoe UI,Segoe UI_MSFontService,sans-serif" font-weight="700" font-size="50" transform="matrix(1 0 0 1 3714.18 1221)">-</text><text fill="#FFFFFF" font-family="Segoe UI,Segoe UI_MSFontService,sans-serif" font-weight="700" font-size="50" transform="matrix(1 0 0 1 3734.8 1221)">hand </text><g><text fill="#FFFFFF" font-family="Segoe UI,Segoe UI_MSFontService,sans-serif" font-weight="700" font-size="50" transform="matrix(1 0 0 1 3645.43 1282)">quantity</text></g><g><text fill="#FFFFFF" font-family="Segoe UI,Segoe UI_MSFontService,sans-serif" font-weight="700" font-size="50" transform="matrix(1 0 0 1 3330.52 1221)">Item</text></g><g><text font-family="Segoe UI,Segoe UI_MSFontService,sans-serif" font-weight="400" font-size="50" transform="matrix(1 0 0 1 3645.43 1377)">100</text></g><g><text font-family="Segoe UI,Segoe UI_MSFontService,sans-serif" font-weight="400" font-size="50" transform="matrix(1 0 0 1 3330.52 1377)">W</text></g><text font-family="Segoe UI,Segoe UI_MSFontService,sans-serif" font-weight="400" font-size="50" transform="matrix(1 0 0 1 3377.5 1377)">000</text><text font-family="Segoe UI,Segoe UI_MSFontService,sans-serif" font-weight="400" font-size="50" transform="matrix(1 0 0 1 3458.28 1377)">7</text><g><text font-family="Segoe UI,Segoe UI_MSFontService,sans-serif" font-weight="400" font-size="50" transform="matrix(1 0 0 1 3645.43 1472)">130</text></g><g><text font-family="Segoe UI,Segoe UI_MSFontService,sans-serif" font-weight="400" font-size="50" transform="matrix(1 0 0 1 3330.52 1472)">W0008</text></g><rect x="2753" y="1159" width="1190" height="347" stroke="#FFFFFF" stroke-width="8.02083" stroke-linejoin="round" stroke-miterlimit="10" fill="none"/><rect x="336" y="1158" width="1175" height="347" stroke="#FFFFFF" stroke-width="8.02083" stroke-linejoin="round" stroke-miterlimit="10" fill="none"/></g></svg>