<svg width="3933" height="1538" xmlns="http://www.w3.org/2000/svg" xmlns:xlink="http://www.w3.org/1999/xlink" xml:space="preserve" overflow="hidden"><g transform="translate(-199 -644)"><rect x="2555.5" y="655.5" width="1558" height="1516" stroke="#156082" stroke-width="20.625" stroke-linejoin="round" stroke-miterlimit="10" fill="none"/><text font-family="Aptos,Aptos_MSFontService,sans-serif" font-weight="700" font-size="110" transform="matrix(1 0 0 1 2608.22 780)">Microsoft </text><text font-family="Aptos,Aptos_MSFontService,sans-serif" font-weight="700" font-size="110" transform="matrix(1 0 0 1 3109.2 780)">Dynamics 365</text><text font-family="Aptos,Aptos_MSFontService,sans-serif" font-weight="700" font-size="110" transform="matrix(1 0 0 1 3831.65 780)">SCM</text><rect x="2721" y="817" width="1249" height="1268" fill="#156082"/><text fill="#FFFFFF" font-family="Aptos,Aptos_MSFontService,sans-serif" font-weight="700" font-size="92" transform="matrix(1 0 0 1 3009.15 955)">SCM </text><text fill="#FFFFFF" font-family="Aptos,Aptos_MSFontService,sans-serif" font-weight="700" font-size="92" transform="matrix(1 0 0 1 3222.85 955)">legal entity</text><rect x="2753" y="1509" width="553" height="519" fill="#0E6D87"/><text fill="#FFFFFF" font-family="Aptos,Aptos_MSFontService,sans-serif" font-weight="400" font-size="92" transform="matrix(1 0 0 1 2804.73 1744)">Warehouse </text><text fill="#FFFFFF" font-family="Aptos,Aptos_MSFontService,sans-serif" font-weight="400" font-size="92" transform="matrix(1 0 0 1 2767.31 1854)">management</text><text font-family="Aptos,Aptos_MSFontService,sans-serif" font-weight="400" font-size="64" transform="matrix(1 0 0 1 1611.14 1429)">Purchase</text><text font-family="Aptos,Aptos_MSFontService,sans-serif" font-weight="400" font-size="64" transform="matrix(1 0 0 1 1884.46 1429)">and</text><text font-family="Aptos,Aptos_MSFontService,sans-serif" font-weight="400" font-size="64" transform="matrix(1 0 0 1 1611.14 1506)">Sales</text><text font-family="Aptos,Aptos_MSFontService,sans-serif" font-weight="400" font-size="64" transform="matrix(1 0 0 1 1776.14 1506)">order</text><text font-family="Aptos,Aptos_MSFontService,sans-serif" font-weight="400" font-size="64" transform="matrix(1 0 0 1 1611.14 1583)">shipments</text><rect x="277" y="1388" width="1244" height="687" fill="#156082"/><text fill="#FFFFFF" font-family="Aptos,Aptos_MSFontService,sans-serif" font-weight="700" font-size="92" transform="matrix(1 0 0 1 566.113 1526)">External system</text><rect x="307" y="1702" width="553" height="346" fill="#0E6D87"/><text fill="#FFFFFF" font-family="Aptos,Aptos_MSFontService,sans-serif" font-weight="400" font-size="92" transform="matrix(1 0 0 1 450.016 1795)">PO/SO </text><text fill="#FFFFFF" font-family="Aptos,Aptos_MSFontService,sans-serif" font-weight="400" font-size="92" transform="matrix(1 0 0 1 401.341 1905)">including </text><text fill="#FFFFFF" font-family="Aptos,Aptos_MSFontService,sans-serif" font-weight="400" font-size="92" transform="matrix(1 0 0 1 390.158 2015)">financials</text><path d="M861.444 1702.63 1176.35 1702.63 1176.35 1858.41 861.444 1858.41Z" fill="#0078D4" fill-rule="evenodd"/><path d="M1176.35 1702.63 1481.91 1702.63 1481.91 1858.41 1176.35 1858.41Z" fill="#0078D4" fill-rule="evenodd"/><path d="M861.444 1858.41 1176.35 1858.41 1176.35 1952.99 861.444 1952.99Z" fill="#CBD6EF" fill-rule="evenodd"/><path d="M1176.35 1858.41 1481.91 1858.41 1481.91 1952.99 1176.35 1952.99Z" fill="#CBD6EF" fill-rule="evenodd"/><path d="M861.444 1952.99 1176.35 1952.99 1176.35 2047.57 861.444 2047.57Z" fill="#E7ECF7" fill-rule="evenodd"/><path d="M1176.35 1952.99 1481.91 1952.99 1481.91 2047.57 1176.35 2047.57Z" fill="#E7ECF7" fill-rule="evenodd"/><path d="M1176.35 1700.34 1176.35 2049.86" stroke="#FFFFFF" stroke-width="4.58333" stroke-linejoin="round" stroke-miterlimit="10" fill="none" fill-rule="evenodd"/><path d="M859.153 1858.41 1484.2 1858.41" stroke="#FFFFFF" stroke-width="13.75" stroke-linejoin="round" stroke-miterlimit="10" fill="none" fill-rule="evenodd"/><path d="M859.153 1952.99 1484.2 1952.99" stroke="#FFFFFF" stroke-width="4.58333" stroke-linejoin="round" stroke-miterlimit="10" fill="none" fill-rule="evenodd"/><path d="M861.444 1700.34 861.444 2049.86" stroke="#FFFFFF" stroke-width="4.58333" stroke-linejoin="round" stroke-miterlimit="10" fill="none" fill-rule="evenodd"/><path d="M1481.91 1700.34 1481.91 2049.86" stroke="#FFFFFF" stroke-width="4.58333" stroke-linejoin="round" stroke-miterlimit="10" fill="none" fill-rule="evenodd"/><path d="M859.153 1702.63 1484.2 1702.63" stroke="#FFFFFF" stroke-width="4.58333" stroke-linejoin="round" stroke-miterlimit="10" fill="none" fill-rule="evenodd"/><path d="M859.153 2047.57 1484.2 2047.57" stroke="#FFFFFF" stroke-width="4.58333" stroke-linejoin="round" stroke-miterlimit="10" fill="none" fill-rule="evenodd"/><g><text fill="#FFFFFF" font-family="Segoe UI,Segoe UI_MSFontService,sans-serif" font-weight="700" font-size="50" transform="matrix(1 0 0 1 1189.35 1765)">On</text></g><text fill="#FFFFFF" font-family="Segoe UI,Segoe UI_MSFontService,sans-serif" font-weight="700" font-size="50" transform="matrix(1 0 0 1 1258.1 1765)">-</text><text fill="#FFFFFF" font-family="Segoe UI,Segoe UI_MSFontService,sans-serif" font-weight="700" font-size="50" transform="matrix(1 0 0 1 1278.72 1765)">hand </text><g><text fill="#FFFFFF" font-family="Segoe UI,Segoe UI_MSFontService,sans-serif" font-weight="700" font-size="50" transform="matrix(1 0 0 1 1189.35 1826)">quantity</text></g><g><text fill="#FFFFFF" font-family="Segoe UI,Segoe UI_MSFontService,sans-serif" font-weight="700" font-size="50" transform="matrix(1 0 0 1 874.436 1765)">Item</text></g><g><text font-family="Segoe UI,Segoe UI_MSFontService,sans-serif" font-weight="400" font-size="50" transform="matrix(1 0 0 1 1189.35 1920)">100</text></g><g><text font-family="Segoe UI,Segoe UI_MSFontService,sans-serif" font-weight="400" font-size="50" transform="matrix(1 0 0 1 874.436 1920)">W</text></g><text font-family="Segoe UI,Segoe UI_MSFontService,sans-serif" font-weight="400" font-size="50" transform="matrix(1 0 0 1 921.416 1920)">000</text><text font-family="Segoe UI,Segoe UI_MSFontService,sans-serif" font-weight="400" font-size="50" transform="matrix(1 0 0 1 1002.2 1920)">7</text><g><text font-family="Segoe UI,Segoe UI_MSFontService,sans-serif" font-weight="400" font-size="50" transform="matrix(1 0 0 1 1189.35 2015)">130</text></g><g><text font-family="Segoe UI,Segoe UI_MSFontService,sans-serif" font-weight="400" font-size="50" transform="matrix(1 0 0 1 874.436 2015)">W0008</text></g><rect x="1818" y="1592" width="474" height="183" fill="#4371E4"/><text fill="#FFFFFF" font-family="Aptos,Aptos_MSFontService,sans-serif" font-weight="400" font-size="73" transform="matrix(1 0 0 1 1887.22 1664)">Messaging </text><text fill="#FFFFFF" font-family="Aptos,Aptos_MSFontService,sans-serif" font-weight="400" font-size="73" transform="matrix(1 0 0 1 1868.41 1752)">middleware</text><path d="M6.80596-3.43749 164.27-3.43715 164.27 3.43785 6.80595 3.43751ZM32.5742 19.011-0.0159314-1.34443e-10 32.5742-19.0108C34.2141-19.9674 36.3189-19.4135 37.2755-17.7736 38.2321-16.1338 37.6782-14.0289 36.0383-13.0724L8.5383 2.96926 8.53831-2.96922 36.0383 13.0725C37.6781 14.0291 38.232 16.1339 37.2754 17.7738 36.3189 19.4137 34.214 19.9676 32.5742 19.011ZM138.502-19.0106 171.092 0.000360893 138.502 19.0112C136.862 19.9678 134.757 19.4139 133.8 17.774 132.844 16.1341 133.398 14.0293 135.038 13.0727L162.538-2.9689 162.538 2.96958 135.038-13.0721C133.398-14.0287 132.844-16.1336 133.801-17.7734 134.757-19.4133 136.862-19.9672 138.502-19.0106Z" fill="#0078D4" transform="matrix(-1 0 0 1 1792.58 1678.5)"/><rect x="209.5" y="1196.5" width="1376" height="975" stroke="#156082" stroke-width="20.625" stroke-linejoin="round" stroke-miterlimit="10" fill="none"/><text font-family="Aptos,Aptos_MSFontService,sans-serif" font-weight="700" font-size="110" transform="matrix(1 0 0 1 399.109 1312)">External ERP system</text><path d="M6.80596-3.43749 164.27-3.43715 164.27 3.43785 6.80595 3.43751ZM32.5742 19.011-0.0159314-1.34443e-10 32.5742-19.0108C34.2141-19.9674 36.3189-19.4135 37.2755-17.7736 38.2321-16.1338 37.6782-14.0289 36.0383-13.0724L8.5383 2.96926 8.53831-2.96922 36.0383 13.0725C37.6781 14.0291 38.232 16.1339 37.2754 17.7738 36.3189 19.4137 34.214 19.9676 32.5742 19.011ZM138.502-19.0106 171.092 0.000360893 138.502 19.0112C136.862 19.9678 134.757 19.4139 133.8 17.774 132.844 16.1341 133.398 14.0293 135.038 13.0727L162.538-2.9689 162.538 2.96958 135.038-13.0721C133.398-14.0287 132.844-16.1336 133.801-17.7734 134.757-19.4133 136.862-19.9672 138.502-19.0106Z" fill="#0078D4" transform="matrix(-1 0 0 1 2488.58 1674.5)"/><text font-family="Aptos,Aptos_MSFontService,sans-serif" font-weight="400" font-size="64" transform="matrix(1 0 0 1 2153.38 1841)">Inbound and </text><text font-family="Aptos,Aptos_MSFontService,sans-serif" font-weight="400" font-size="64" transform="matrix(1 0 0 1 2220.98 1918)">Outbound </text><text font-family="Aptos,Aptos_MSFontService,sans-serif" font-weight="400" font-size="64" transform="matrix(1 0 0 1 2050.59 1995)">shipment orders</text><path d="M3317.53 1499.39 3632.44 1499.39 3632.44 1676.37 3317.53 1676.37Z" fill="#0078D4" fill-rule="evenodd"/><path d="M3632.44 1499.39 3938 1499.39 3938 1676.37 3632.44 1676.37Z" fill="#0078D4" fill-rule="evenodd"/><path d="M3317.53 1676.37 3632.44 1676.37 3632.44 1783.82 3317.53 1783.82Z" fill="#CBD6EF" fill-rule="evenodd"/><path d="M3632.44 1676.37 3938 1676.37 3938 1783.82 3632.44 1783.82Z" fill="#CBD6EF" fill-rule="evenodd"/><path d="M3317.53 1783.82 3632.44 1783.82 3632.44 1891.27 3317.53 1891.27Z" fill="#E7ECF7" fill-rule="evenodd"/><path d="M3632.44 1783.82 3938 1783.82 3938 1891.27 3632.44 1891.27Z" fill="#E7ECF7" fill-rule="evenodd"/><path d="M3317.53 1891.27 3632.44 1891.27 3632.44 2018.7 3317.53 2018.7Z" fill="#CBD6EF" fill-rule="evenodd"/><path d="M3632.44 1891.27 3938 1891.27 3938 2018.7 3632.44 2018.7Z" fill="#CBD6EF" fill-rule="evenodd"/><path d="M3632.44 1497.1 3632.44 2020.99" stroke="#FFFFFF" stroke-width="4.58333" stroke-linejoin="round" stroke-miterlimit="10" fill="none" fill-rule="evenodd"/><path d="M3315.24 1676.37 3940.29 1676.37" stroke="#FFFFFF" stroke-width="13.75" stroke-linejoin="round" stroke-miterlimit="10" fill="none" fill-rule="evenodd"/><path d="M3315.24 1783.82 3940.29 1783.82" stroke="#FFFFFF" stroke-width="4.58333" stroke-linejoin="round" stroke-miterlimit="10" fill="none" fill-rule="evenodd"/><path d="M3315.24 1891.27 3940.29 1891.27" stroke="#FFFFFF" stroke-width="4.58333" stroke-linejoin="round" stroke-miterlimit="10" fill="none" fill-rule="evenodd"/><path d="M3317.53 1497.1 3317.53 2020.99" stroke="#FFFFFF" stroke-width="4.58333" stroke-linejoin="round" stroke-miterlimit="10" fill="none" fill-rule="evenodd"/><path d="M3938 1497.1 3938 2020.99" stroke="#FFFFFF" stroke-width="4.58333" stroke-linejoin="round" stroke-miterlimit="10" fill="none" fill-rule="evenodd"/><path d="M3315.24 1499.39 3940.29 1499.39" stroke="#FFFFFF" stroke-width="4.58333" stroke-linejoin="round" stroke-miterlimit="10" fill="none" fill-rule="evenodd"/><path d="M3315.24 2018.7 3940.29 2018.7" stroke="#FFFFFF" stroke-width="4.58333" stroke-linejoin="round" stroke-miterlimit="10" fill="none" fill-rule="evenodd"/><g><text fill="#FFFFFF" font-family="Segoe UI,Segoe UI_MSFontService,sans-serif" font-weight="700" font-size="50" transform="matrix(1 0 0 1 3645.43 1561)">On</text></g><text fill="#FFFFFF" font-family="Segoe UI,Segoe UI_MSFontService,sans-serif" font-weight="700" font-size="50" transform="matrix(1 0 0 1 3714.18 1561)">-</text><text fill="#FFFFFF" font-family="Segoe UI,Segoe UI_MSFontService,sans-serif" font-weight="700" font-size="50" transform="matrix(1 0 0 1 3734.8 1561)">hand </text><g><text fill="#FFFFFF" font-family="Segoe UI,Segoe UI_MSFontService,sans-serif" font-weight="700" font-size="50" transform="matrix(1 0 0 1 3645.43 1622)">quantity</text></g><g><text fill="#FFFFFF" font-family="Segoe UI,Segoe UI_MSFontService,sans-serif" font-weight="700" font-size="50" transform="matrix(1 0 0 1 3330.52 1561)">Item</text></g><g><text font-family="Segoe UI,Segoe UI_MSFontService,sans-serif" font-weight="400" font-size="50" transform="matrix(1 0 0 1 3645.43 1755)">100</text></g><g><text font-family="Segoe UI,Segoe UI_MSFontService,sans-serif" font-weight="400" font-size="50" transform="matrix(1 0 0 1 3330.52 1755)">W</text></g><text font-family="Segoe UI,Segoe UI_MSFontService,sans-serif" font-weight="400" font-size="50" transform="matrix(1 0 0 1 3377.5 1755)">000</text><text font-family="Segoe UI,Segoe UI_MSFontService,sans-serif" font-weight="400" font-size="50" transform="matrix(1 0 0 1 3458.28 1755)">7</text><g><text font-family="Segoe UI,Segoe UI_MSFontService,sans-serif" font-weight="400" font-size="50" transform="matrix(1 0 0 1 3645.43 1863)">130</text></g><g><text font-family="Segoe UI,Segoe UI_MSFontService,sans-serif" font-weight="400" font-size="50" transform="matrix(1 0 0 1 3330.52 1863)">W0008</text></g><g><text font-family="Segoe UI,Segoe UI_MSFontService,sans-serif" font-weight="400" font-size="50" transform="matrix(1 0 0 1 3645.43 1980)">303</text></g><g><text font-family="Segoe UI,Segoe UI_MSFontService,sans-serif" font-weight="400" font-size="50" transform="matrix(1 0 0 1 3330.52 1980)">A0001</text></g><rect x="307" y="1700" width="1175" height="347" stroke="#FFFFFF" stroke-width="8.02083" stroke-linejoin="round" stroke-miterlimit="10" fill="none"/><rect x="2750" y="1012" width="1188" height="332" fill="#0E6D87"/><text fill="#FFFFFF" font-family="Aptos,Aptos_MSFontService,sans-serif" font-weight="400" font-size="92" transform="matrix(1 0 0 1 2844.64 1153)">Purchase and sales order </text><text fill="#FFFFFF" font-family="Aptos,Aptos_MSFontService,sans-serif" font-weight="400" font-size="92" transform="matrix(1 0 0 1 3127.09 1263)">processing</text><path d="M3.43752 6.80603 3.43784 117.891-3.43716 117.891-3.43748 6.80605ZM-19.0108 32.5742 1.61608e-07-0.0159307 19.011 32.5741C19.9676 34.214 19.4137 36.3188 17.7738 37.2754 16.134 38.232 14.0291 37.6781 13.0725 36.0383L-2.96922 8.53832 2.96926 8.5383-13.0723 36.0383C-14.0289 37.6782-16.1337 38.2321-17.7736 37.2755-19.4135 36.319-19.9674 34.2141-19.0108 32.5742ZM19.0112 92.1235 0.000360495 124.714-19.0106 92.1236C-19.9672 90.4837-19.4133 88.3789-17.7735 87.4223-16.1336 86.4657-14.0288 87.0196-13.0722 88.6594L2.96958 116.159-2.9689 116.159 13.0727 88.6594C14.0293 87.0195 16.1341 86.4656 17.774 87.4222 19.4138 88.3787 19.9678 90.4836 19.0112 92.1235Z" fill="#0078D4" transform="matrix(1 0 0 -1 3360.5 1478.2)"/><rect x="2753" y="1499" width="1190" height="525" stroke="#FFFFFF" stroke-width="8.02083" stroke-linejoin="round" stroke-miterlimit="10" fill="none"/></g></svg>